
<svg xmlns="http://www.w3.org/2000/svg" width="1678" height="825" fill="none"><g filter="url(#a)"><g clip-path="url(#b)"><rect width="595" height="406" x="990" y="203" fill="#fff" rx="10" style="fill:#fff;fill-opacity:1"/><path fill="#fff" d="M990 256h595v353H990z" style="fill:#fff;fill-opacity:1"/><g filter="url(#c)"><path fill="#fff" d="M990 213a10 10 0 0 1 10-10h575a10 10 0 0 1 10 10v43H990v-43Z" style="fill:#fff;fill-opacity:1"/><g filter="url(#d)"><path fill="#EE6A5F" fill-rule="evenodd" d="M1017 235a6 6 0 1 0 0-12 6 6 0 0 0 0 12Z" clip-rule="evenodd" style="fill:#ee6a5f;fill:color(display-p3 .9333 .4157 .3725);fill-opacity:1"/></g><path stroke="#CE5347" stroke-width=".5" d="M1022.8 229a5.7 5.7 0 1 1-11.5 0 5.7 5.7 0 0 1 11.5 0Z" style="stroke:#ce5347;stroke:color(display-p3 .8078 .3255 .2784);stroke-opacity:1"/><g filter="url(#e)"><path fill="#F5BD4F" fill-rule="evenodd" d="M1037 235a6 6 0 1 0 0-12 6 6 0 0 0 0 12Z" clip-rule="evenodd" style="fill:#f5bd4f;fill:color(display-p3 .9608 .7412 .3098);fill-opacity:1"/></g><path stroke="#D6A243" stroke-width=".5" d="M1042.8 229a5.7 5.7 0 1 1-11.5 0 5.7 5.7 0 0 1 11.5 0Z" style="stroke:#d6a243;stroke:color(display-p3 .8392 .6353 .2627);stroke-opacity:1"/><g filter="url(#f)"><path fill="#61C454" fill-rule="evenodd" d="M1057 235a6 6 0 1 0 0-12 6 6 0 0 0 0 12Z" clip-rule="evenodd" style="fill:#61c454;fill:color(display-p3 .3804 .7686 .3294);fill-opacity:1"/></g><path stroke="#58A942" stroke-width=".5" d="M1062.8 229a5.7 5.7 0 1 1-11.5 0 5.7 5.7 0 0 1 11.5 0Z" style="stroke:#58a942;stroke:color(display-p3 .3451 .6627 .2588);stroke-opacity:1"/><rect width="219" height="22" x="1178" y="218" fill="#000" fill-opacity=".1" rx="11" style="fill:#000;fill-opacity:.05"/></g><rect width="175" height="24" x="1069" y="377" fill="#F2F2F2" rx="12" style="fill:#f2f2f2;fill:color(display-p3 .949 .949 .949);fill-opacity:1"/><rect width="175" height="23" x="1069" y="440" fill="#F2F2F2" rx="11.5" style="fill:#f2f2f2;fill:color(display-p3 .949 .949 .949);fill-opacity:1"/><rect width="175" height="23" x="1069" y="502" fill="#F2F2F2" rx="11.5" style="fill:#f2f2f2;fill:color(display-p3 .949 .949 .949);fill-opacity:1"/><rect width="84" height="23" x="1160" y="315" fill="#F2F2F2" rx="11.5" style="fill:#f2f2f2;fill:color(display-p3 .949 .949 .949);fill-opacity:1"/><path fill="#4DC800" fill-opacity=".3" d="M1311 315h191v174h-191z" style="fill:#4dc800;fill:color(display-p3 .302 .7843 0);fill-opacity:.3"/><path fill="#fff" d="M1333.1 333h146.7v139.2h-146.7z" style="fill:#fff;fill-opacity:1"/><path fill="#78AAD2" fill-opacity=".7" d="M1333.1 333h146.7v139.2h-146.7z" style="fill:#78aad2;fill:color(display-p3 .4706 .6667 .8235);fill-opacity:.7"/><path fill="#fff" stroke="#fff" d="M1385.6 386.8h.2l.5-.4a2 2 0 0 1 1.6 0c.2 0 .4.2.6.4l7.3 7.5a2.1 2.1 0 0 1 .6 1.5 2.2 2.2 0 0 1-1.3 2 2 2 0 0 1-1.5 0 2 2 0 0 1-.7-.5l-7.3-7.4a2.2 2.2 0 0 1 0-3Zm39.2 3-7.3 7.5a2 2 0 0 1-3 0 2.2 2.2 0 0 1-.3-2.3c0-.3.2-.5.4-.7l7.3-7.5a2 2 0 0 1 3 0v.2a2.1 2.1 0 0 1 .5 1.4l-.1.8-.5.7Zm-19.6-11.3c.6 0 1 .2 1.5.6.4.4.6 1 .6 1.5v10.6c0 .6-.2 1.1-.6 1.5a2 2 0 0 1-3 0c-.3-.4-.5-1-.5-1.5v-10.6c0-.5.2-1 .6-1.5a2 2 0 0 1 1.4-.6Zm-27.7 28.5c0-.6.2-1.1.6-1.5a2 2 0 0 1 1.5-.6h10.2c.6 0 1 .2 1.5.6a2.2 2.2 0 0 1 0 3 2 2 0 0 1-1.5.7h-10.2a2 2 0 0 1-1.5-.7c-.4-.4-.6-1-.6-1.5Z" style="fill:#fff;fill-opacity:1;stroke:#fff;stroke-opacity:1"/><g filter="url(#g)"><path fill="#fff" d="M1429.4 446.6c.5 1 0 5.3-2.4 6.3-2.5 1-5.7 0-5.7 0l-5.6-11.4-10 9.8v-44.5L1436 437h-11.3l4.7 9.6Z" style="fill:#fff;fill-opacity:1"/><path fill="#000" fill-rule="evenodd" d="M1408.4 413.2v31.7l8-7.9 6.6 13.2s1.8.6 2.6 0c.9-.5 1.8-1.7 1.4-2.6-1.9-4.4-6.7-13.2-6.7-13.2h9.3l-21.2-21.2Z" clip-rule="evenodd" style="fill:#000;fill-opacity:1"/></g><path fill="#377DA0" d="M1102.2 326.5c0 1.4-.5 2.7-1.5 3.6a5.3 5.3 0 0 1-7.4 0 5 5 0 0 1 0-7.2 5.3 5.3 0 0 1 7.4 0c1 1 1.5 2.2 1.5 3.6Zm6.2-24.5c-3.2 0-7.3 2.2-11.4 6-4.2-3.8-8.3-6-11.4-6-1 0-1.8.3-2.6.7-3.2 1.8-4 7.5-2.3 14.6-7 2.1-11.7 5.6-11.7 9.2 0 3.7 4.6 7.1 11.8 9.2-1.7 7.2-1 12.9 2.3 14.7.7.4 1.6.6 2.5.6 3.2 0 7.3-2.2 11.5-6 4.1 3.8 8.2 6 11.4 6 1 0 1.8-.3 2.5-.7 3.2-1.8 4-7.5 2.3-14.6 7-2.1 11.7-5.6 11.7-9.2 0-3.6-4.6-7-11.8-9.2 1.7-7.2 1-12.8-2.3-14.7-.8-.4-1.6-.6-2.5-.6Zm0 2.5c.5 0 1 .1 1.3.3 1.5.9 2.2 4.2 1.7 8.5a36 36 0 0 1-.6 3.3c-2.4-.6-4.8-1-7.3-1.2-1.4-2-3-3.9-4.7-5.6 3.7-3.4 7.2-5.3 9.6-5.3Zm-22.8 0c2.3 0 5.8 1.9 9.6 5.3a53.3 53.3 0 0 0-4.8 5.6c-2.4.2-4.8.6-7.2 1.2a36 36 0 0 1-.6-3.3c-.5-4.2.1-7.6 1.7-8.4.4-.3.9-.3 1.3-.4Zm11.4 7 3.1 3.6a70.4 70.4 0 0 0-6.3 0c1-1.3 2.1-2.5 3.2-3.6Zm0 6c1.7 0 3.5.1 5.1.3a59.6 59.6 0 0 1 5.2 8.7 61 61 0 0 1-5.1 8.8c-3.5.2-7 .3-10.3 0a60.8 60.8 0 0 1-5.2-8.8 58.3 58.3 0 0 1 5.1-8.7c1.8-.2 3.5-.2 5.2-.2Zm-8.5.6a56 56 0 0 0-3.1 5.4 48 48 0 0 1-1.6-4.5l4.7-.9Zm17 0 4.6 1-1.5 4.4-3.1-5.4Zm7.1 1.6 3.2 1.1c4 1.7 6.7 4 6.7 5.7 0 1.8-2.7 4-6.7 5.7-1 .4-2 .8-3.2 1.1a54 54 0 0 0-2.5-6.8c1-2.4 1.9-4.6 2.5-6.8Zm-31.3 0c.7 2.2 1.6 4.5 2.6 6.8-1 2.2-1.8 4.5-2.5 6.8a33 33 0 0 1-3.2-1.1c-4-1.7-6.7-4-6.7-5.7 0-1.8 2.6-4 6.7-5.7l3.1-1.1Zm27.3 9.8 1.6 4.5-4.7.9a59 59 0 0 0 3.1-5.4Zm-23.2 0a52.2 52.2 0 0 0 3.1 5.4l-4.7-1 1.6-4.3Zm25.4 6.9.6 3.3c.5 4.2-.1 7.6-1.7 8.5-.3.2-.8.3-1.3.3-2.3 0-5.8-1.9-9.6-5.3 1.6-1.6 3.2-3.5 4.8-5.6 2.5-.2 5-.7 7.2-1.2Zm-27.6 0c2.3.6 4.7 1 7.3 1.2 1.5 2.1 3.1 4 4.7 5.6-3.7 3.4-7.2 5.3-9.6 5.3-.4 0-.9 0-1.3-.3-1.5-.9-2.2-4.2-1.7-8.5l.6-3.3Zm10.6 1.5a70.4 70.4 0 0 0 6.4 0c-1 1.3-2.1 2.5-3.2 3.6a47 47 0 0 1-3.2-3.6Z" style="fill:#377da0;fill:color(display-p3 .2157 .4902 .6275);fill-opacity:1"/><g clip-path="url(#h)"><path fill="#fff" d="M0 0h230.1v33H0z" style="fill:#fff;fill-opacity:1" transform="translate(1311 492)"/><rect width="230.1" height="33" x="1311" y="492" fill="#34373F" rx="3.7" style="fill:#34373f;fill:color(display-p3 .2039 .2157 .2471);fill-opacity:1"/><path fill="#D7D7D7" d="M1496.1 507.5c0 .2 0 .4-.2.6a2 2 0 0 1-.6.5c.3.2.6.3.8.6l.2.8c0 .2 0 .5-.2.7-.1.2-.3.4-.6.5-.3.2-.6.2-1 .2-.3 0-.7 0-1-.2-.2 0-.4-.3-.5-.5-.2-.2-.2-.4-.2-.7 0-.6.3-1 1-1.3l-.6-.5c-.2-.2-.2-.4-.2-.7 0-.3 0-.5.2-.7.1-.2.3-.4.6-.5l.7-.1.8.1c.3.1.5.3.6.5l.2.7Zm-2.3 0v.4l.4.3.5.2.5-.4.1-.5c0-.2 0-.4-.2-.5a.8.8 0 0 0-.6-.2c-.2 0-.4 0-.5.2-.2.1-.2.3-.2.5Zm1.7 2.5c0-.2 0-.4-.2-.5a1 1 0 0 0-.3-.3l-.7-.3c-.5.2-.7.6-.7 1 0 .3 0 .5.2.7l.7.2c.3 0 .6 0 .7-.2l.3-.6Zm3-3.8c.5 0 1 .2 1.2.7.3.4.5 1 .5 1.9 0 .8-.2 1.5-.5 2-.3.4-.7.6-1.3.6-.5 0-1-.2-1.3-.7-.3-.4-.4-1-.4-1.9 0-.9.1-1.5.4-2 .3-.4.8-.6 1.3-.6Zm0 .6c-.4 0-.6.2-.7.5-.2.3-.3.8-.3 1.5s.1 1.2.3 1.5c.1.3.3.5.6.5s.5-.2.7-.5l.2-1.5c0-.7 0-1.2-.2-1.5-.2-.3-.4-.5-.7-.5Zm0 1.5s.2 0 .3.2l.1.3-.1.3-.4.2c-.1 0-.2 0-.3-.2l-.1-.3a.5.5 0 0 1 .4-.5Zm4.2-1c.9 0 1.4.7 1.4 2 0 .7-.2 1.2-.4 1.6-.3.3-.7.5-1.1.5-.4 0-.8-.1-1-.4v1.8l-.8.1v-5.4h.7v.5l.5-.5.7-.1Zm-.3.7-.4.1-.4.4v1.9c.2.2.4.4.8.4l.6-.3.2-1.1c0-.5 0-.9-.2-1a.6.6 0 0 0-.6-.4Zm2 3.3 1.3-2-1.2-1.8h1l.7 1.3.8-1.3h.9l-1.2 1.8 1.4 2h-1l-1-1.6-.9 1.6h-.9Zm7.7 0 1.4-2-1.3-1.8h1l.8 1.3.8-1.3h.9l-1.3 1.8 1.4 2h-1l-.9-1.6-1 1.6h-.8Zm11.2-3.8c0 .2 0 .4-.2.6l-.6.5c.3.2.6.3.7.6.2.2.3.5.3.8 0 .2 0 .5-.2.7l-.6.5c-.3.2-.6.2-1 .2s-.7 0-1-.2c-.2 0-.4-.3-.5-.5-.2-.2-.3-.4-.3-.7 0-.6.4-1 1-1.3l-.6-.5-.1-.7c0-.3 0-.5.2-.7.1-.2.3-.4.6-.5l.7-.1.8.1c.3.1.4.3.6.5l.2.7Zm-2.4 0 .1.4.4.3.5.2.5-.4.1-.5c0-.2 0-.4-.2-.5a.8.8 0 0 0-.6-.2c-.2 0-.4 0-.5.2-.2.1-.3.3-.3.5Zm1.8 2.5c0-.2 0-.4-.2-.5a1 1 0 0 0-.3-.3l-.7-.3c-.5.2-.7.6-.7 1 0 .3 0 .5.2.7l.7.2c.3 0 .6 0 .7-.2l.3-.6Zm3-3.8c.5 0 .9.2 1.2.7.3.4.4 1 .4 1.9 0 .8-.1 1.5-.4 2-.3.4-.7.6-1.3.6-.5 0-1-.2-1.3-.7-.3-.4-.4-1-.4-1.9 0-.9.1-1.5.4-2 .3-.4.8-.6 1.3-.6Zm0 .6c-.4 0-.6.2-.8.5l-.2 1.5c0 .7 0 1.2.2 1.5.2.3.4.5.7.5.3 0 .5-.2.7-.5l.2-1.5c0-.7 0-1.2-.2-1.5-.2-.3-.4-.5-.7-.5Zm0 1.5s.2 0 .3.2l.1.3-.1.3-.4.2c-.1 0-.2 0-.3-.2l-.2-.3c0-.1 0-.2.2-.3l.3-.2Zm4.1-1c1 0 1.5.7 1.5 2 0 .7-.2 1.2-.4 1.6-.3.3-.7.5-1.2.5-.4 0-.7-.1-1-.4v1.8l-.8.1v-5.4h.8v.5l.5-.5.6-.1Zm-.2.7-.5.1-.3.4v1.9c.2.2.4.4.7.4.3 0 .5-.1.7-.3l.2-1.1c0-.5 0-.9-.2-1a.6.6 0 0 0-.6-.4Zm1.9 3.3 1.4-2-1.3-1.8h1l.8 1.3.8-1.3h.9l-1.2 1.8 1.4 2h-1l-1-1.6-.9 1.6h-1Z" style="fill:#d7d7d7;fill:color(display-p3 .8431 .8431 .8431);fill-opacity:1"/><path fill="#DF80E0" d="M1326 500.1v6.8h-1.3l-.1-.5c-.2.2-.3.4-.6.5l-.8.2c-.5 0-1-.3-1.3-.7-.3-.5-.5-1.1-.5-2 0-.4.1-.9.3-1.3.1-.4.4-.7.7-.9.3-.2.6-.3 1-.3s.8.1 1 .4V500l1.5.1Zm-2.2 2.8c-.3 0-.5.2-.6.4-.2.3-.3.7-.3 1.2l.2 1.2.6.3c.3 0 .6-.2.8-.6v-2a1 1 0 0 0-.3-.4.7.7 0 0 0-.4 0Zm5.5-3.4c.3 0 .5 0 .6.2l.3.6c0 .3-.1.5-.3.6-.1.2-.3.2-.6.2-.2 0-.4 0-.6-.2a.8.8 0 0 1-.2-.6c0-.2 0-.4.2-.6l.6-.2Zm.9 6.4h1.2v1h-4v-1h1.3V503h-1.3v-1h2.8v4Zm5.5 1h-1.7l-1.7-4.9h1.6l1 3.8 1-3.8h1.4l-1.6 5Zm10.1-7.4c.3 0 .5 0 .6.2l.3.6c0 .3-.1.5-.3.6-.1.2-.3.2-.6.2-.2 0-.5 0-.6-.2a.8.8 0 0 1-.3-.6l.3-.6.6-.2Zm.9 6.4h1.2v1h-4v-1h1.3V503h-1.3v-1h2.8v4Zm2.5-3.9h1.3v.6l.8-.5c.2-.2.5-.2.8-.2.4 0 .7.1 1 .4.2.2.3.6.3 1v3.6h-1.4v-3.1l-.1-.7-.4-.1-.4.1c-.2 0-.3.2-.4.4v3.4h-1.5V502Zm15.2.3-3 1.7 3 1.7-.6 1-3.6-2.1v-1l3.6-2.3.6 1Zm4-1.9c.4 0 .8 0 1 .2.4 0 .7.3 1 .5l-.8.9a2 2 0 0 0-1.2-.5c-.5 0-.8.2-1 .6-.3.3-.5.9-.5 1.6 0 .8.2 1.3.4 1.7.3.3.6.5 1.1.5l.7-.1.7-.5.7 1c-.6.5-1.3.8-2.2.8a3 3 0 0 1-1.5-.4c-.5-.3-.8-.6-1-1.1a4 4 0 0 1-.4-1.9c0-.7 0-1.3.3-1.8a2.8 2.8 0 0 1 2.6-1.5Zm4.9 1.5c.7 0 1.3.2 1.7.7.5.5.7 1 .7 1.9 0 .8-.2 1.4-.7 1.9-.4.4-1 .7-1.7.7s-1.3-.3-1.7-.7c-.5-.5-.7-1.1-.7-2 0-.4.1-.9.3-1.3.2-.4.5-.7.8-.9.4-.2.8-.3 1.3-.3Zm0 1c-.3 0-.5.2-.7.4l-.2 1.2.2 1.2c.2.2.4.3.7.3.3 0 .5-.1.7-.4l.2-1.1-.2-1.2a.7.7 0 0 0-.7-.3Zm7-1c.3 0 .6.1.8.3l.2 1.1v3.6h-1.2v-3.8h-.3c-.1 0-.3 0-.5.2v3.6h-1v-3.8h-.2c-.2 0-.4 0-.5.2v3.6h-1.3V502h1l.2.5.4-.5.6-.1.4.1c.2.1.3.3.3.5.3-.4.7-.6 1-.6Zm4.6 0c.6 0 1 .2 1.3.7.3.4.5 1 .5 1.9 0 .5-.1 1-.3 1.3-.1.4-.3.7-.6 1-.3.2-.6.3-1 .3-.5 0-.9-.2-1.2-.5v2.2l-1.4.2v-7h1.3v.6l.7-.5c.2-.2.4-.2.7-.2Zm-.5 1c-.3 0-.5.2-.8.6v2l.4.4.3.1c.3 0 .5-.1.7-.3l.2-1.2-.2-1.2a.6.6 0 0 0-.6-.3Zm5.4-1c.7 0 1.3.2 1.7.7.4.5.7 1 .7 1.9 0 .8-.3 1.4-.7 1.9-.4.4-1 .7-1.7.7-.8 0-1.3-.3-1.8-.7-.4-.5-.6-1.1-.6-2 0-.4.1-.9.3-1.3.2-.4.5-.7.8-.9.4-.2.8-.3 1.3-.3Zm0 1c-.3 0-.5.2-.7.4l-.2 1.2c0 .5 0 1 .2 1.2.2.2.4.3.7.3.3 0 .5-.1.7-.4l.2-1.1c0-.6-.1-1-.3-1.2a.7.7 0 0 0-.6-.3Zm3.4-.9h1.2l.1.6.7-.5c.3-.2.5-.2.9-.2s.7.1 1 .4c.2.2.3.6.3 1v3.6h-1.5v-3.8l-.4-.1-.5.1-.4.4v3.4h-1.4V502Zm6.7 3c.1.6.5 1 1.2 1 .4 0 .8-.1 1.3-.4l.5.8-.8.5a3.3 3.3 0 0 1-2.5-.1c-.4-.3-.7-.6-.9-1a3 3 0 0 1-.2-1.3c0-.5 0-1 .2-1.3l.8-1c.4-.2.8-.3 1.3-.3s.9 0 1.2.3c.4.2.6.5.8.8.2.4.3.9.3 1.4v.5h-3.2Zm1-2.1c-.3 0-.5 0-.7.2-.2.2-.3.5-.3 1h1.8c0-.9-.3-1.2-.9-1.2Zm3.3-.9h1.2l.1.6.7-.5c.3-.2.5-.2.8-.2.5 0 .8.1 1 .4.3.2.4.6.4 1v3.6h-1.5v-3.8l-.4-.1-.5.1-.4.4v3.4h-1.4V502Zm9.8 4.6c-.4.3-1 .5-1.5.5-.7 0-1.1-.2-1.5-.5-.3-.3-.4-.8-.4-1.3V503h-1v-1h1v-1l1.4-.2v1.2h1.6l-.2 1h-1.4v2.3c0 .2 0 .4.2.5l.5.1c.3 0 .6 0 .9-.2l.5 1Zm5.4-3v1l-3.6 2.2-.6-1 3-1.8-3-1.7.6-1 3.6 2.2ZM1323.7 517.2c.3 0 .5 0 .7-.2.2-.1.3-.3.3-.5v-.3l-.4-.3-.8-.2-1.2-.5c-.2-.2-.3-.5-.3-1 0-.4.1-.7.5-1 .3-.2.8-.3 1.4-.3a3 3 0 0 1 1.8.5l-.4.7c-.4-.3-.9-.5-1.4-.5-.6 0-.9.2-.9.6l.1.3.4.2.7.2 1.2.6c.3.2.4.5.4 1 0 .4-.2.8-.6 1-.4.3-1 .5-1.5.5a3 3 0 0 1-2-.7l.5-.6.7.3.8.2Zm7.1-4.3h.8l-.2 1.9h-.8v-1c-.3 0-.6.1-.8.4a3 3 0 0 0-.6 1.1v1.8h1v.7h-2.8v-.7h.8v-3.4h-.8v-.7h1.5l.2 1.1.7-1 1-.2Zm4.4 4.2c.4 0 .8-.1 1.2-.4l.5.7a2.6 2.6 0 0 1-1.7.6c-.8 0-1.3-.3-1.7-.7-.5-.5-.7-1-.7-1.9 0-.5.1-.9.3-1.3.2-.4.5-.7.8-.9.4-.2.8-.3 1.3-.3.6 0 1.2.2 1.7.6l-.5.6a2 2 0 0 0-1.2-.4c-.4 0-.7.1-1 .4-.2.3-.3.8-.3 1.3 0 .6.1 1 .4 1.3.2.3.5.4 1 .4Zm2.8 1.3 3.9-8 .8.4-4 8-.7-.4Zm8.2-1.3c.4 0 .8-.1 1.2-.4l.5.7-.8.4-1 .2c-.6 0-1.2-.3-1.6-.7-.5-.5-.7-1-.7-1.9 0-.5.1-.9.3-1.3a2.2 2.2 0 0 1 2.1-1.2c.6 0 1.2.2 1.7.6l-.5.6c-.4-.3-.8-.4-1.2-.4-.4 0-.7.1-1 .4-.2.3-.3.8-.3 1.3 0 .6.1 1 .4 1.3.2.3.5.4 1 .4Zm5.1-4.2a2 2 0 0 1 1.6.7c.4.4.6 1 .6 1.8s-.2 1.4-.6 1.9a2 2 0 0 1-1.6.7 2 2 0 0 1-1.6-.7c-.4-.5-.6-1-.6-1.9 0-.8.2-1.4.6-1.8a2 2 0 0 1 1.6-.7Zm0 .8a1 1 0 0 0-.8.4c-.2.3-.3.7-.3 1.3 0 .6.1 1 .3 1.3.2.3.4.5.8.5s.7-.2.9-.5l.2-1.3c0-.6 0-1-.3-1.3a1 1 0 0 0-.8-.4Zm7-.8c.2 0 .5 0 .6.3.2.2.3.5.3 1v3.6h-1v-4l-.3-.1c-.2 0-.5.1-.7.4v3.7h-.8v-4l-.3-.1c-.3 0-.5.1-.7.4v3.7h-1V513h.8v.5l.6-.5.5-.1c.5 0 .7.2.9.6l.4-.5.6-.1Zm4.4 0c1.2 0 1.8.8 1.8 2.5 0 .8-.2 1.4-.5 1.9-.3.4-.8.7-1.4.7-.5 0-.9-.2-1.2-.6v2.3l-1 .1V513h.9v.6l.7-.5c.2-.2.5-.2.7-.2Zm-.2.8a1 1 0 0 0-.6.1c-.2.2-.4.3-.5.6v2.2c.2.4.6.6 1 .6.3 0 .6-.2.8-.5l.2-1.3c0-.6 0-1-.2-1.3a.8.8 0 0 0-.7-.4Zm5.3-.8a2 2 0 0 1 1.6.7c.4.4.6 1 .6 1.8s-.2 1.4-.6 1.9a2 2 0 0 1-1.6.7 2 2 0 0 1-1.6-.7c-.4-.5-.6-1-.6-1.9 0-.8.2-1.4.6-1.8a2 2 0 0 1 1.6-.7Zm0 .8a1 1 0 0 0-.8.4c-.2.3-.3.7-.3 1.3 0 .6 0 1 .3 1.3.2.3.4.5.8.5s.7-.2.8-.5c.2-.3.3-.7.3-1.3 0-.6 0-1-.3-1.3a1 1 0 0 0-.8-.4Zm3.6-.7h.9v.6a2 2 0 0 1 1.6-.7c.4 0 .8 0 1 .3.2.3.3.6.3 1.1v3.5h-1v-3.7l-.2-.3-.5-.1c-.2 0-.4 0-.6.2a2 2 0 0 0-.5.5v3.4h-1V513Zm6.3 2.7c0 .5.2.9.4 1.1.3.2.6.4 1 .4l.6-.1.6-.4.5.7-.8.4a3 3 0 0 1-1 .2c-.8 0-1.3-.3-1.7-.7-.4-.5-.6-1.1-.6-1.9 0-.5 0-.9.2-1.3s.4-.7.8-.9a2 2 0 0 1 1.2-.3c.6 0 1.1.2 1.5.6.4.4.5 1 .5 1.8v.4h-3.2Zm1.2-2a1 1 0 0 0-.8.3c-.2.2-.4.6-.4 1h2.3c0-.4-.2-.8-.3-1a1 1 0 0 0-.8-.4Zm3.5-.7h.8l.1.6a2 2 0 0 1 1.6-.7c.4 0 .8 0 1 .3.2.3.3.6.3 1.1v3.5h-1v-3.7l-.2-.3-.5-.1c-.2 0-.4 0-.6.2a2 2 0 0 0-.5.5v3.4h-1V513Zm9.5 4.6-.6.3a3 3 0 0 1-.8 0c-.6 0-1 0-1.3-.4-.3-.3-.4-.6-.4-1.1v-2.7h-1.1v-.7h1v-1l1-.2v1.2h1.7v.7h-1.6v2.7c0 .2 0 .4.2.5.1.2.3.2.6.2.4 0 .7 0 1-.2l.3.7Zm1 .8 4-8 .7.4-3.8 8-.9-.4Zm5.5-.6 1.8-2.5-1.6-2.3h1.2l1 1.7 1-1.7h1.1l-1.5 2.2 1.7 2.6h-1.2l-1.2-2-1.1 2h-1.2Zm5.5 0 1.8-2.5-1.6-2.3h1.2l1 1.7 1-1.7h1.1l-1.5 2.2 1.7 2.6h-1.2l-1.2-2-1.1 2h-1.2Zm5.5 0 1.8-2.5-1.6-2.3h1.2l1 1.7 1-1.7h1.1l-1.5 2.2 1.7 2.6h-1.2l-1.2-2-1.1 2h-1.2Zm5.5.6 4-8 .7.4-3.9 8-.8-.4Zm5.5-.6 1.8-2.5-1.6-2.3h1.2l1 1.7 1-1.7h1.1l-1.5 2.2 1.7 2.6h-1.2l-1.2-2-1.2 2h-1Zm5.5 0 1.8-2.5-1.6-2.3h1.2l1 1.7 1-1.7h1l-1.4 2.2 1.7 2.6h-1.2l-1.2-2-1.2 2h-1Zm5.5 0 1.8-2.5-1.6-2.3h1.2l1 1.7 1-1.7h1l-1.4 2.2 1.7 2.6h-1.2l-1.2-2-1.2 2h-1Zm7-.7c0-.3 0-.5.2-.7l.7-.2c.2 0 .4 0 .6.2l.2.7c0 .2 0 .4-.2.6-.2.2-.4.3-.7.3l-.6-.3a.8.8 0 0 1-.2-.6Zm8.5.5-.7.3h-.8c-.5 0-1 0-1.2-.4-.3-.3-.5-.6-.5-1.1v-2.7h-1v-.7h1v-1l1-.2v1.2h1.7l-.1.7h-1.5v2.7c0 .2 0 .4.2.5 0 .2.3.2.6.2s.6 0 .9-.2l.4.7Zm3.2-.4c.3 0 .6 0 .7-.2.2-.1.3-.3.3-.5v-.3l-.4-.3-.7-.2c-.6-.1-1-.3-1.2-.5-.3-.2-.4-.5-.4-1 0-.4.1-.7.5-1 .3-.2.8-.3 1.4-.3a3 3 0 0 1 1.9.5l-.5.7c-.4-.3-.9-.5-1.4-.5-.6 0-.9.2-.9.6l.1.3.4.2.8.2 1.1.6c.3.2.4.5.4 1 0 .4-.2.8-.6 1-.4.3-1 .5-1.5.5a3 3 0 0 1-2-.7l.5-.6.7.3.8.2Zm3.3.6 1.7-2.5-1.5-2.3h1.2l1 1.7 1-1.7h1l-1.4 2.2 1.7 2.6h-1.2l-1.2-2-1.2 2h-1.1Z" style="fill:#df80e0;fill:color(display-p3 .8745 .502 .8784);fill-opacity:1"/><path stroke="#AAA" stroke-width=".9" d="M1485.5 497.1v23.8" style="stroke:#aaa;stroke:color(display-p3 .6667 .6667 .6667);stroke-opacity:1"/></g></g></g><g filter="url(#i)"><rect width="168" height="168" x="564" y="112" fill="#3C3C3C" rx="14" style="fill:#3c3c3c;fill:color(display-p3 .2353 .2353 .2353);fill-opacity:1"/></g><path fill="#FFCF00" d="M606 245a24 24 0 1 0 0-48 24 24 0 0 0 0 48Z" style="fill:#ffcf00;fill:color(display-p3 1 .8118 0);fill-opacity:1"/><path fill="#191919" d="m595 208 13 13-13 13-3.2-3.1 9.8-9.9-9.8-9.8 3.2-3.2Zm14.4 0 13 13-13 13-3.2-3.1 9.9-9.9-9.9-9.8 3.2-3.2Z" style="fill:#191919;fill:color(display-p3 .098 .098 .098);fill-opacity:1"/><path fill="#000" d="M669 151.7v-.3h-.4v.3h.3Zm2.5 6.1v.2h.3v-.6l-.3.5Zm-10 8c-.6-1-1.3-2-2.2-2.7 0-.3.6-.7 1.4-1.2l2.9-2.4c.7-1.2 1-2.5 1-3.9v-.2c0-1.3-1-2.2-2.6-3-1-.6-2.8-1-5.3-1-2.9.3-5.7 1-8.3 2.2l-3.2 2v.3l.3-.2h.2v.2H646l-2.2 1.7.1.2h-.6v.2l.2.3h-.3c-.4 0-.8.2-1 .5l.1-.6c.5-1.9.8-3.8 1-5.7v-.1l-.9-.9v-.5h-.2a151.6 151.6 0 0 1-9.8 12.9c-1 .9-1.5 1.6-1.4 1.7-.3.1-.4.3-.4.5a2.8 2.8 0 0 1-1.9 1.2l-.9.2a.2.2 0 0 0-.2.2v.1h.4l-.8.4-1.2.2h-.7.3l-.8.3c-.6.1-1 0-1-.2v.3-.3l-.6.2c0-.3-.9-1.4-2.6-3.4 0-.4.5-.9 1.7-1.6l3.6-3.2a9 9 0 0 0 1.4-5v-.5c-.2-1.6-1.3-2.9-3.5-3.8-1.3-1-3.6-1.4-7-1.4a42 42 0 0 0-10.7 3l-4.2 2.6v.2l.4-.1h.2v.2l.4-.2h.1v.2c-.9.9-1.8 1.7-2.9 2.3l.2.2h-.9v.2l.4.4h-.6a2.8 2.8 0 0 0-1.7 1.3v.2l1-.7v.4l-.4.1.3.5a11 11 0 0 1 2.1-1.7c.5 0 .7.2.7.3h.2c2-1.4 4-2.6 6.3-3.4v.4l-.7.8.1.6a181.2 181.2 0 0 1-13.8 29.7l.2.4c.5-.1 1-.3 1.4-.6h.2v.3h.3l.2-.2.4.1v.3c0 .4-.2.8-.5 1.2-.4.6-.7 1.4-1 2.1v.1h.3c1-1.2 2-2.5 2.7-3.9 2.7-.7 5.3-1.6 7.9-2.9 1.5 0 3-.5 4.2-1.4v-.2l-.7.2h-.2v-.2c1 0 2-.4 2.8-.9 2.6-2 4.6-3.4 5.9-4.2 2.7-2 4.5-4 5.3-5.9l.5-.2h1.5l1-.3h.4v.3l-4.7 7.3-1 1.3-.5 1.7.6-.2-.2.6v.2l.2.2v.3h.1c.3-.3.5-.6.5-.8h.6v.1c-.2 0-.3.2-.4.5v.2h.2c1.8-2 5.9-8.3 9.2-12.6 0-.5 1.7-1.1 5.3-2 .2.7 0 2-.8 4.1a11 11 0 0 0-.6 2.2c-.4 1-.7 1.8-.9 2.8l-1.1 4.2c-.8 2.2-1.5 4.5-1.9 6.8h.4l.2-.2v-.3h.7l.3-.6c0-.5.1-.9.4-.9a9 9 0 0 1 .7-2 9 9 0 0 1 .7-2.3c.4-1.8.8-2.7 1-2.7v.2l-.3.9c-.5 2.2-1 4.3-1.8 6.4l.1.9h.2A171 171 0 0 0 640 167c.3-.3.5-.6.9-.8l-.2-.2c.3 0 .6-.2.7-.4l-.9-.4 1.5-6.1c.1-.2.3-.3.6-.4v.3l-.4.1.3.4c.4-.5 1-1 1.6-1.4.3 0 .4.2.5.3h.2c1.4-1 3-2 4.7-2.6v.3l-.5.6v.4a147.1 147.1 0 0 1-10.4 22.8c.5 0 .8-.1 1.2-.3v.2h.3l.2-.1h.3v.2c0 .4-.2.7-.4 1-.4.5-.6 1-.7 1.7h.2c.8-.8 1.5-1.8 2-3 2.1-.5 4.1-1.2 6-2.1 1.2 0 2.3-.4 3.2-1v-.2l-.5.1h-.2c.8-.1 1.5-.4 2.1-.8 2-1.4 3.5-2.6 4.6-3.2 3.1-2.3 4.5-4.5 4.4-6.6Zm-.6.1v.8c0 .2-.2.3-.2.3l-.1-1.4.3.2v.1Zm-62-6.8v-.2l.5-.1a1 1 0 0 0-.4.3Zm-2.7 27.7-.8-.2v-.5c0-.2 0-.3.2-.3.3 0 .3.1.3.4l.9-.9h.2c0 1-.3 1.4-.8 1.4Zm29.4-30.8-.8-1.3v-.2c.2 0 .5.4.8 1.3v.3-.1Zm-.4-3v.2l-4.1-1.7c2.7.1 4 .6 4.1 1.4Zm-16.8 14.4h-.6v-.2h.6v.2Zm-.5-8.7h.2v.4l-.5.6v-.3c.2-.3.4-.5.3-.7Zm-1.1 2.8v.5h-.1v-.5Zm-.6 1h.2c0 .4-.1.7-.3.7h-.2l.3-.6v-.1Zm-.6 1.4h.2v.2l-.3.3h-.1l.1-.1.2-.1a.4.4 0 0 0 0-.3Zm-.4 1.2v.7h-.2v-.6h.2Zm-4.6 13c-.1 1-.3 1.5-.6 1.5v-.2a1.5 1.5 0 0 1 .6-1.2Zm-.8 1.8v.5a.3.3 0 0 1-.3 0v-.1c0-.2 0-.3.3-.3Zm-.3 3.9h.4v.2c-.1 0-.3 0-.4.2h-.3c0-.2 0-.3.3-.4Zm12.1-3.9c-1.5.7-2.9 1.5-4.2 2.5-2.6.9-3.8 1.4-3.8 1.7a42 42 0 0 0-4.5 2c-.3 0-.5 0-.7-.2a1.2 1.2 0 0 1 .6-1.1l1.1.1 2.2-.7v-.3h-.9c.8-.4 1.6-.8 2.5-1h.4v.1c-.7 0-1.1.3-1.2.6 0 .2 0 .3.3.3l.8-.6c1-.3 3.9-1.8 8.6-4.6v.3c0 .2-.4.5-1.2 1Zm-7.2 2.4c.7 0 1.3-.3 1.8-.8.1 0 .2 0 .2.3-.7.2-1.3.5-1.9.9v-.4Zm11.7-9-3.7 3.1c-1.4 1-2.9 1.9-4.4 2.7a33.5 33.5 0 0 1-7.9 3.7h-.2c.1-.5 2-4.4 5.7-11.7 2.7-.5 5.2-1.2 7.7-2.3h.8a5 5 0 0 1 4 1v.5c-.6 1.9-1.3 3-2.1 3.2v-.1Zm-7-3.9h.6v.1h-.6Zm8.1-1.3h.5l.6.4v.2a1.2 1.2 0 0 1-1-.6Zm1.2-6.6c-1 .9-2 1.7-3.1 2.3-.6 0-2.6.9-6.2 2.5-.2-.2-.4-.2-.7-.2v-.2c0-.7.3-1.4.7-2 .4-1.4.7-2.3 1-2.5l3-6.7c0-.4.6-.7 1.8-1h.5v.4l2.3-.3c2.4-.2 3.6.3 3.7 1.4h.4l-.1-.7h.3a1.8 1.8 0 0 1 1.2 1.3c0 .5-.3 1-.6 1.4-.2 0-.3 0-.3-.3h-.3v.8c-1.3 1.7-2.1 2.6-2.7 2.7l-.9 1v.1Zm1.7 4.7a1 1 0 0 0-.5-.2v-.4h.3l.6.3a.3.3 0 0 1-.2.3h-.1Zm2 2.3.4.4h-.5v-.4Zm.1 1h.4-.4Zm.9 1 1.1-.1-1.2.3v-.1h.1Zm1.1.6c-.4 0-.8 0-1.2.2l1-.5h.6v.1c-.2 0 0 0-.3.2Zm1.2-.3a.3.3 0 0 1-.3-.2h.5v.2h-.2Zm3-3.1v-.2l.5-.1v.2h-.5Zm3.1 19.5v-.3h.2a.2.2 0 0 1 .2 0v.2l-.4.1Zm2.3-18.8h-.3l-.8.4h-.5l1.4-.4.6-.3.1.2a1 1 0 0 0-.5.2Zm1.1-.3.3-.3 1-.2-1.3.5Zm.3-2.2-.3.2h-.6c0-.2.7-.5 2.3-.9h.3v.2l-1.7.5Zm3-3c-.3 1.2-.7 2-1.5 2.1l-.7.2h-.8v-.2c.9-1.5 2-3 3-4.4h.3c0 .8 0 1.5-.4 2.2Zm5-4.5v-.1h.3l-.4.2Zm-2.2 21.1-.6-.2v-.3c0-.1 0-.2.2-.2.1 0 .2 0 .2.3l.6-.7h.2c0 .8-.2 1-.5 1.1h-.1Zm22.3-23.5-.6-1v-.2c.2 0 .4.3.6 1v.2Zm-.3-2.4-.1.3-3-1.3c2 0 3 .4 3.1 1Zm-12.9 11.2h-.4v-.3h.4v.3Zm-.3-6.7v.3l-.4.5v-.2a.9.9 0 0 0 .4-.6Zm-.9 2.2v.3h-.2v-.3h.2Zm-.5.7h.2c0 .3 0 .5-.3.5v-.5Zm-.4 1h.1v.1l-.2.4h-.1v-.1c.1 0 .2-.1.2-.4Zm-.3 1v.5h-.2v-.5h.3-.1Zm-3.5 10c-.2.6-.3 1-.5 1v-.2a1.1 1.1 0 0 1 .5-1v.1Zm-.7 1.3a.2.2 0 0 1 0 .2h-.1l.1-.2Zm-.1 2.8h.3v.2l-.3.1h-.2c0-.1 0-.2.2-.3Zm9.1-2.8c-1.1.5-2.2 1.1-3.2 1.8-1.9.7-2.9 1.1-2.9 1.3a31 31 0 0 0-3.3 1.7l-.5-.2a.9.9 0 0 1 .4-.9l.9.1 1.8-.5v-.3h-.8c.5-.4 1.2-.6 1.8-.9h.4v.1c-.7.1-1 .3-1 .5l.1.2h.2l.6-.4c.7-.1 2.9-1.3 6.5-3.4v.1l-1 1v-.2Zm-5.4 1.8c.5 0 1-.3 1.4-.6a.2.2 0 0 1 .1.1l-1.4.7h-.1v-.2Zm9-6.7-2.8 2.2c-1 .8-2.2 1.4-3.3 2a28 28 0 0 1-6.1 2.8c0-.3 1.4-3.3 4.3-8.8 2-.4 4-1 5.8-1.8h.6a3.7 3.7 0 0 1 3 .7v.5c-.5 1.4-1 2.1-1.6 2.4Zm-5.4-3h.4v.1h-.4Zm6.2-1h.2l.6.3v.1a.9.9 0 0 1-.9-.4Zm.9-5c-.8.7-1.6 1.2-2.4 1.7-1.6.5-3.2 1.1-4.7 1.9a1 1 0 0 0-.5 0v-.3c0-.5.2-1 .5-1.5l.7-2 2.3-5c0-.3.5-.5 1.5-.7h.3v.3l1.8-.3c1.8 0 2.7.3 2.8 1.1h.2v-.5h.3a1.4 1.4 0 0 1 .8 1c0 .5-.2.8-.5 1.1-.2 0-.2 0-.2-.2h-.2v.6c-.9 1.3-1.7 2-2.1 2-.4.5-.5.8-.7.8Zm.8 3.5v-.4h.3l.4.3a.2.2 0 0 1-.1.2.9.9 0 0 0-.5-.2Zm-38 19.6h-.3l-.2.2.1.1a.2.2 0 0 0 .2 0c.2 0 .2 0 .2-.2v-.1Zm-.8-1.6c.1 0 .2 0 .1-.2a.2.2 0 0 0-.1.2Zm5.8-13.6h.2v-.3h-.3v.3Zm74.1 6.1c-1 .3-2.1.6-3.2.6v.2h.6c2.4-.3 2.7-.3 2.6-.5v-.2Zm-13.3 1.8v.2-.2Zm-1.6-5.3h-.2l-.2.8c.1 0 .3-.3.4-.9v.1Zm15.4 3.5v.2h.4v-.1h-.4Zm-16.9 2.1h-.5l-.1.2 3.3-.2v-.2l-2.6.2h-.1Zm-1.5-7.3h-.3l.1.3c.2 0 .3 0 .2-.3ZM702 173h.2v-.4l-1.3.3h-.7l-.1-.3h-.4c-.4 0-.6 0-.9.2h-1.4v.1h.5a.4.4 0 0 0 .3.1h.2l-2.1.5a.3.3 0 0 0-.3-.1.2.2 0 0 1-.1-.2h.7l.6-.3v-.2l-2.3.2v-.1l2-.4v.1h.5c.8 0 1.6-.2 2.3-.4h.5c0-.2.2-.3.3-.3v-.2c-2.4.5-3 .4-3.8.5a3 3 0 0 1-.8 0l-.2.1h-.1l-2.1.3h-.1c-.7.2-1.5.3-2.3.3l-.2.1h-1.1l-.5.2h-.1l-.9.1c-.2 0 0 0 0 0H687l-1.6.2h-.5l-.1.1c-.7 0-1-.2-1-.3 0-.6.1-1 .4-1h.2l-.2.2h.2l.2-.3v-.2h-.2V171.2l.6-.8v.2h.2v-.2l-.1-.2.4-.3h-.4v-.3l1-2.3h.2s.2 0 .2-.2h-.2v-.5a1.4 1.4 0 0 0 .5-1 41.1 41.1 0 0 0 2.7-6.8c1.8-4.7 1.8-5.3 2-6.4h-.2v.4a.9.9 0 0 0-.5 0v-.1c0-.6.3-1.1.7-1.5l.1.7h.3v-1h-.4v-1.1a.9.9 0 0 1-.3-.5l-1.1.1a1 1 0 0 0-.2-.3l.8-.3h.6l.2-.1h.1v-.2h-1.2l-.2.2v-.2l-9.4.8h-1.1s0 .2-.3.2l-.1-.1-1 .2h-.8l-.4.2 2.3-.2a1 1 0 0 1-.6.2h-.4l-1.8.3h-.2l-3.9.5a.9.9 0 0 0-.5 0l-1 .1-1.8.9v.2l.5-.2h.6v.7a1.7 1.7 0 0 0-1.1 1.1c-1 .5-1.3.7-1.3 1h.3l.3.3v.4l-4.6 9.7c-2.6 6.1-4 9.4-4.1 10-.9.2-1.4.6-1.6 1 0 .2.3.3.8.4v.1l-.3.5v.4c0 .3.7.5 2 .6l.1-.1a7 7 0 0 1-.2 1.7h.1c.5-.5.8-1 1-1.7.2 0 .3.2.4.5l-1.7 4 .2.1h.1c1.2-3 2-4.7 2.3-5l8.2-.9.3-.1c0 .1 0 .1 0 0H672.3l3-.2c.7 0 1.2-.3 1-.7 0-.1.5-.3 1.5-.4h.3l1.4-.1c0-.6.2-.8.5-.8v-.3a4 4 0 0 0-.9.3l-1.1-.2a1 1 0 0 1-.4.2h-2l-.3.1h-.5l-.7-.1-.3.1h-.4c2.6-.3 4-.7 3.9-1.1h.1l.1.2.8-.2v-.3l-6.3.2-.1.2h-1.6l-1.7.2h-1.8l-1.4.2h-.7c0-.5.9-2.5 2.5-6.2.2-.9.7-1.7 1.4-2.3h.3l1-.3h.6c1 0 2-.3 3-.7h1.5l2.3-.2c1-.1 2-.4 3.1-.7v-.3c-.4 0-.7 0-.7-.2s-.3-.4-.9-.3v-.3l.6-.1 1.7-.2v-.3h-1v-.2h.6c.2 0 .2-.1.2-.3-.8 0-1.3 0-1.3-.2a57.2 57.2 0 0 1-9.4.4v-.3c1.5-3.3 2.4-5 2.7-5 0 .2 0 .4-.2.6h.3c.6-1.4 1.1-2.2 1.5-2.3 2-.1-.2-.2 3.8-.8h.4l6.5-1v-.2l-1.5.2v-.3c.2 0 .4 0 .5-.2v.2c.1 0 .2 0 .3-.2h.7l1.2-.1 1-.1c.2-.2.3-.3.3-.5a3 3 0 0 1-.9 0v-.2a.3.3 0 0 1 .3-.2l1.7-.2.8-.1.1.1.4-.1h.1l-.3.8h-.3v-.3h-.2c-2.1 5.9-3.1 8.7-5 13.1a5.5 5.5 0 0 1-1 2l.1.2h.2c0 .6-.2 1.2-.5 1.7l-1.7 4.4.1 1.1a.2.2 0 0 1 0 .2l-.1.1h-.3c0-.4 0-.5-.3-.5h-.1c-.3.4-.5 1-.6 1.5h.1l.3-.3v-.3h.8c-.2.2-.3.5-.3.8l.1.2-.3.6v.1c.4 0 .7 0 1 .3l.5-.3h2.7l.8-.3h2.1l.1-.1h1.7v.1h-.4v.3c.1 0 .2 0 .3-.2.1 0 .2 0 .2.2a3 3 0 0 0-.6.2l-.3-.1-.4.2-.4-.1a.2.2 0 0 0 0 .2h.5l1.7-.1.7-.1.5-.1h.6l1.5-.3v-.1l2-.4h.7v-.2h-1.4l-1.5.1.9-.2h.3l.2-.1c1.1 0 1.6.3 7-.8.3 0 .3-.4.5-.9h-.3l-1.6.2s-.2 0-.2-.2h1l.8-.4s-.2.1 0 .1l-.1.1Zm-40.3.7h-.3c.1-.6.3-1.2.6-1.7h.3c-.1.6-.3 1.2-.6 1.7Zm.5-2s0-.2.2-.3v.1c0 .2 0 .3-.2.3Zm5.1 4v.2h-.7l.7-.2Zm-.8 0c0 .1-.1.3-.6.5l-.8-.1h-.2v-.3l1.7-.1h-.1Zm5.2-23.7h-.4v-.1c0-.2 0-.3.3-.3h.3v.1a.3.3 0 0 1-.3.3h.1Zm6-1.2v.3h-.4a.3.3 0 0 1 .2-.3h.1Zm-1.6.5h-.6v-.2l1.5-.3.3.1v.3h-.3l-.4-.1a1 1 0 0 1-.5.2Zm.7 2.2v-.1l.9-.1-.9.2Zm1-2.5v-.2l1.2-.2v.2l-1 .2h-.1Zm.7 2.3v-.3h.4c.2 0 .3.1.3.3h-.9.2Zm2.8-3.8-.6.2h-.1a6 6 0 0 1-1.1 0l1.7-.2Zm-.7 2.6v.1l-.8.1h.9l-.1-.2Zm1.3.7s0-.2-.4-.2l-1 .2h-.4l-.3-.2h.7l1.7-.3h.8v.2c-.3 0-.7 0-1 .2Zm8.3-2.2h.2l1-.7c-.2 1.1-.6 2.1-1.3 3l-.5-.3c.3-.7.5-1.3.6-2Zm-1.4 2.4h.2l-.4.5v-.3c.1 0 .2 0 .3-.2Zm-.8 2.2c0-.5.3-1 .7-1.5-.2.9-.4 1.2-.6 1.3v.6c-.2.1-.3.3-.3.6h-.1v-.7l.3-.4v.1Zm-.4 1.1c0 .3 0 .6-.2 1h-.1v-.3c.1-.4.3-.6.4-.6Zm-6.7 19.2v-.1h.2v.3s-.2 0-.2-.2Zm9.4.2h-.6v-.1l1.2-.1-.6.2Zm-.6-1.7h-.6v-.1h.6l.5-.2.2.1.9-.2.2.2-1.8.2Zm2.6-.2h-.7v-.2h.6s.1 0 0 .2Zm.8-.2.2-.2a.3.3 0 0 1 .3.2h-.5Zm1-.1v-.1h.4-.5Zm.5 0c0-.2 0-.3.2-.3v.2h.3-.5Zm8.3-1.2h-.1c-.1-.2 0 0-.1 0v.1l-.2.3.4-.2v-.2Zm.5.5v.2h.4c0-.2-.2-.2-.4-.2Z" style="fill:#000;fill-opacity:1"/><path fill="#F9DC3E" d="M671.2 157.2v.2h.3V156.8l-.3.5Zm-2.6-6.2v-.3h-.4v.3h.4Zm-7.5 14c-.6-1-1.3-1.8-2.1-2.6 0-.3.4-.7 1.4-1.2l2.7-2.3a6.8 6.8 0 0 0 1.2-3.8v-.4c-.1-1.3-1-2.2-2.7-3-1-.6-2.7-1-5.2-1-2.9.3-5.7 1-8.3 2.2l-3.2 2v.2h.3l.1-.1h.1a.2.2 0 0 1 0 .2h.3l-2.2 1.7.1.2h-.6v.2l.2.3h-.4c-.3 0-.7.2-1 .5l.3-.6 1-5.7v-.2c-.4-.2-.8-.5-1-.9v-.5h-.1a190.5 190.5 0 0 1-10 12.9c-.8 1-1.4 1.6-1.3 1.7-.2.2-.4.4-.3.6h-.1c-.5.6-1.1 1-1.8 1.2l-1 .2h-.1v.2h.3v.1l-.7.3-1.3.3h-.7.3l-.9.3c-.5 0-.8 0-.9-.2v.2-.2l-.8.2c0-.3-.8-1.4-2.6-3.4 0-.4.5-.9 1.8-1.6l3.7-3.2c.8-1 1.2-2.7 1.4-5v-.5c-.2-1.6-1.4-2.9-3.5-4-1.4-.8-3.7-1.2-7-1.3a42 42 0 0 0-10.9 3c-1.3 1-2.7 1.8-4.2 2.6v.2l.5-.1a.3.3 0 0 1 .2.2l.3-.1h.2v.1c-1 1-2 1.7-3 2.3l.2.2h-.8v.3l.2.3h-.4a2.8 2.8 0 0 0-1.8 1.3v.2a4 4 0 0 1 1-.7v.4l-.3.2.3.4a11 11 0 0 1 2.1-1.7c.4 0 .6.3.6.3h.3c1.9-1.4 4-2.5 6.2-3.3v.3c-.3.6-.6.8-.7.8 0 .2 0 .4.2.6a179.8 179.8 0 0 1-13.7 29.8c0 .1 0 .3.2.4.5-.1 1-.3 1.4-.6h.2v.3h.7v.3c0 .4-.1.8-.4 1.2-.4.6-.7 1.4-.9 2.1v.2h.2c1-1.2 2-2.5 2.7-3.9 2.7-.7 5.4-1.7 8-3 1.4 0 2.8-.5 4-1.4v-.2l-.6.2h-.1v-.2c1 0 2-.3 2.8-.8 2.5-2 4.5-3.4 5.8-4.2 2.8-2 4.5-4 5.3-6h1.2v-.2h.7l1-.4h.3-.1.3l.1.3-4.6 7.4-1 1.3-.6 1.8h.2l.4-.3-.2.7.1.2.2.2h-.1v.2h.2c.3-.3.4-.6.4-.9l.6.1v.2l-.2.4v.1c1.7-1.7 6-8.1 9.3-12.4-.1-.5 1.6-1.2 5.2-2h.1c.1.5-.2 2-.9 4a11 11 0 0 0-.5 2.2c-.4.9-.6 1.8-.9 2.8l-1.1 4.1c-.8 2.2-1.5 4.5-2 6.8h.4l.2-.2v.1h.1v-.3h.6s.3-.2.4-.6c0-.6 0-.9.3-.9a9 9 0 0 1 .6-2 9 9 0 0 1 .7-2.4c.5-1.7.9-2.6 1.2-2.6v.2l-.4.9c-.5 2.1-1.1 4.2-2 6.3l.3.9a178.3 178.3 0 0 0 7-20.7c.2-.3.5-.6.9-.8l-.2-.2c.3 0 .5-.2.7-.5l-.9-.3 1.4-6.1.5-.4v.3l-.2.1.2.4 1.6-1.4c.4 0 .4.2.5.3h.2c1.4-1 3-2 4.8-2.6v.3c-.3.4-.5.6-.7.6l.2.4-2 5.4a147 147 0 0 1-8.3 17.5c.4 0 .8 0 1.1-.2v.1h.7v.2c0 .3-.2.6-.4.9l-.7 1.7h.2c.9-.8 1.6-1.8 2.1-2.8 2-.6 4-1.4 6-2.3 1.1 0 2.2-.5 3.2-1.2v-.1l-.6.1v-.1c.8-.1 1.5-.3 2.1-.7l4.5-3.3c3.2-2.3 4.7-4.5 4.4-6.7v.1Zm-.5.2v.8c0 .2-.2.3-.3.3V165l.3.3Zm-62-6.7v-.2h.5a1 1 0 0 0-.5.2Zm-2.7 27.6-.9-.2v-.4c0-.1 0-.3.3-.3.2 0 .2.1.2.4l1-1 .2.3c-.2.7-.4 1.2-.9 1.2h.1Zm29.4-30.8-.9-1.2v-.3c.4 0 .6.3.9 1.2v.3Zm-.4-3-.1.2-4-1.7c2.7.1 4 .6 4.1 1.4ZM608 166.7h-.5v-.2h.5v.2Zm-.4-8.8v.4l-.5.7v-.3c.3-.4.5-.5.5-.7v-.1Zm-1.3 3v.5l-.1-.6Zm-.7 1h.3c0 .4 0 .7-.4.7h-.1l.2-.7Zm-.2 1.3h.1l-.2.5h-.3a.3.3 0 0 0 .4-.5Zm-.5 1.2v.7h-.4v-.7h.4Zm-4.6 13c-.2 1-.5 1.4-.6 1.4v-.1a1.5 1.5 0 0 1 .6-1.3Zm-.9 1.8v.2a.3.3 0 0 1-.3.3v-.1c0-.2.1-.3.3-.4Zm-.3 3.8h.5v.2c-.2 0-.3 0-.5.2h-.2c0-.2 0-.3.2-.3v-.1Zm12.2-3.7c-1.5.7-3 1.4-4.3 2.4-2.5 1-3.8 1.5-3.7 1.7-1.6.5-3.1 1.2-4.6 2-.3 0-.5 0-.8-.2a1.2 1.2 0 0 1 .6-1.1l1.2.1 2.3-.7v-.3h-1c.8-.4 1.7-.8 2.5-1h.5v.1c-.8 0-1.2.3-1.3.6 0 .2.1.3.3.3l.9-.6c1-.2 3.8-1.7 8.5-4.5v.3l-1.1 1Zm-7.2 2.3c.6 0 1.3-.4 1.7-.9.2 0 .3.1.3.3-.7.2-1.4.5-2 .9v-.3Zm11.6-9-3.6 3c-1.4 1-2.8 1.8-4.4 2.6a31 31 0 0 1-7.9 3.6h-.1c0-.5 2-4.4 5.7-11.7 2.6-.4 5.2-1.2 7.6-2.3h.9a5 5 0 0 1 4 1v.5c-.7 2-1.4 3-2.2 3.3Zm-7-3.9h.5-.5Zm8-1.4h.5c.4.2.6.3.6.5v.1a1.2 1.2 0 0 1-1-.6Zm1.2-6.6c-1 1-2 1.7-3 2.4-.6 0-2.7.9-6.2 2.4-.2-.1-.4-.2-.6-.1v-.3c0-.7.3-1.4.7-2 .3-1.4.5-2.3.9-2.5l3-6.6c-.1-.5.5-.8 1.8-1h.4v.3l2.4-.3c2.4-.2 3.7.3 3.8 1.5h.2v-.7h.2a1.8 1.8 0 0 1 1.2 1.4c0 .5-.3 1-.7 1.4-.1 0-.2-.2-.2-.5h-.3v1c-1.2 1.7-2.1 2.6-2.7 2.6l-.9 1.1Zm1.9 4.8a1 1 0 0 0-.6-.3v-.3h.2l.6.4a.3.3 0 0 1-.1.2h-.1Zm1.9 2.1.4.4h-.2l-.2.2v-.6Zm.2 1.2.3-.2v.2h-.3Zm.8.9 1.1-.2v.2l-1.2.2v-.2Zm1.2.6c-.4 0-.8 0-1.2.2v-.1l1-.4h.5v.1c-.2 0 0 0-.3.2Zm1-.3a.3.3 0 0 1-.2-.2H625.3v.1h-.4v.1Zm3.1-3.2v-.1l.5-.1v.2h-.5Zm3.2 19.6v-.3H631.6v.1l-.4.2Zm2.3-18.7h-.3l-.9.3h-.2a.2.2 0 0 1-.2 0 .2.2 0 0 1-.1 0l1.5-.4.5-.3.2.2-.5.2Zm1.1-.4.3-.3 1-.2-1.3.5Zm.2-2.1c-.1 0-.2 0-.3.2h-.4c-.1-.2.7-.6 2.3-1h.2v.3l-1.8.5Zm2.9-3c-.2 1.1-.6 2-1.4 2.1l-.7.2h-.8v-.3l3-4.3h.3c0 .8-.1 1.5-.4 2.1v.1Zm5-4.5v-.1h.3l-.3.2Zm-2.1 21-.7-.2v-.2c0-.2.1-.2.2-.3.2 0 .3 0 .3.4l.5-.8h.3c-.1.8-.3 1.1-.5 1.1h-.1Zm22.3-23.4-.6-1v-.2c.2 0 .5.3.6 1v.2Zm-.2-2.4-.2.3-3-1.4c2 .1 3 .5 3.2 1.1Zm-12.8 11.1h-.5v-.1h.4v.1Zm-.4-6.5v.2l-.3.5v-.3l.2-.5h.1Zm-.9 2v.5h-.2v-.4h.2Zm-.5.9h.2c0 .3-.1.5-.3.5l.1-.5Zm-.3 1v.1l-.1.4h-.2v-.2c.2 0 .3-.1.3-.3Zm-.3.9v.5h-.2v-.5h.2Zm-3.5 10c-.1.6-.3 1-.5 1v-.1a1.1 1.1 0 0 1 .5-1Zm-.6 1.3a.2.2 0 1 1-.3.3c0-.2.1-.3.3-.3Zm-.3 2.7h.4v.1l-.4.2h-.2c0-.1 0-.2.2-.3Zm9.2-2.6c-1.1.5-2.2 1-3.2 1.8-2 .7-3 1.1-3 1.3-1.1.4-2.3.9-3.4 1.5l-.6-.2a.9.9 0 0 1 .6-.9c.3 0 .6 0 .8.2l1.8-.5v-.3h-.7l1.8-.8h.4c-.6 0-.9.3-.9.6v.1l.2.1.6-.4c.8-.2 3-1.4 6.5-3.6v.3l-.9.8Zm-5.5 1.8c.5 0 1-.3 1.4-.7 0 0 .2 0 .2.2l-1.4.6h-.2v-.1Zm8.9-7-2.8 2.1c-1 .8-2.1 1.5-3.3 2.1a28 28 0 0 1-6 2.8h-.1c0-.4 1.5-3.3 4.3-8.8 2-.4 4-1 5.8-1.8h.7a3.7 3.7 0 0 1 3 .7v.4c-.5 1.5-1 2.3-1.6 2.5Zm-5.3-3h.3-.4Zm6.1-1.1h.3l.5.3v.1a.9.9 0 0 1-.9-.4h.1Zm1-5c-.8.7-1.6 1.3-2.5 1.8-1.6.5-3.2 1.1-4.7 1.9a1 1 0 0 0-.4 0v-.3c0-.5.2-1 .5-1.5.2-1.1.4-1.7.7-1.9l2.3-5c0-.4.4-.6 1.4-.8h.3v.3l1.8-.3c1.7-.2 2.8.2 2.9 1h.2v-.2h.1a1.4 1.4 0 0 1 1 1l-.5 1.1c-.1 0-.2 0-.2-.4h-.3v.7c-1 1.3-1.6 2-2 2l-.8.8.1-.2Zm.8 3.5v-.3h.3l.4.2v.1h-.1a.9.9 0 0 0-.5 0h-.1Zm-38 19.8h-.2l-.2.2v.1h.1l.1.1h.1s.2-.1.2-.3h-.1Zm-.8-1.6v.1c.2 0 .2-.1.2-.2v-.1a.2.2 0 0 0-.2.2Zm5.8-10.8.2-.2h-.2v.2Zm0-3h.3v-.2l-.4.1v.2Zm57.7 8.4h-.5v.3l3.3-.4v-.1l-2.7.2Zm17-2 .3.2v-.2h-.3Zm-.6 0c-1 .2-2.2.4-3.3.4v.2h.7c2.5-.3 2.6-.2 2.6-.5v-.1Zm-14.9-3.7h-.1c-.2.2-.3.5-.3.8.2 0 .3-.2.4-.8Zm-3-1.7-.2.1v.3c.2 0 .2 0 .2-.3Zm6.5 6.8v-.2.2Zm13.6-3h.1l.1-.2v-.2c-.4 0-.9 0-1.3.2h-.7l-.2-.3h-.3c-.5 0-.6 0-1 .2h-1.6v.2l.3.1h.8a16.5 16.5 0 0 1-2.5.4v-.2h.7l.6-.3-2.3.1h-.1v-.2l2-.2a.4.4 0 0 1 .4 0h.1c.8 0 1.6-.1 2.4-.4h.4c0-.2.3-.2.4-.2v-.3c-2.5.5-3 .4-3.8.5a3 3 0 0 1-.9 0l-.1.2h-.1l-2.1.2h-.1c-.8.2-1.5.3-2.3.3l-.3.1h-1l-.5.2h-2.2l-1.6.3h-.6v.1c-.7 0-1-.1-1-.3 0-.6.1-.9.4-.9v.2l.4-.4v-.2h-.2V170.6l.5-.7v.1h.2v-.4l.4-.2h-.4v-.4c.4-.7.7-1.5.9-2.3h.3l.1-.1h-.2v-.5a1.4 1.4 0 0 0 .5-1h.2a41.1 41.1 0 0 0 2.8-6.8c1.7-4.9 1.7-5.3 2-6.5h-.3v.4a.9.9 0 0 0-.4 0v-.2c0-.5.2-1 .5-1.5h.1l.3.7h.1l.2-.8c0-.1 0-.2-.2-.2h-.2v-1h-.2a.9.9 0 0 1-.3-.4h-1a1 1 0 0 0-.3-.3l1-.2h.4l.3-.1h.2v-.2H690l-.2.2v-.2l-9.3.9h-1.7l-.8.2h-.9l-.5.1h2.4a1 1 0 0 1-.6.1h-.5l-1.7.3h-.3l-3.8.5h-.5c-.3 0-.7 0-1 .2l-1.8.8v.1l.4-.1h.7v.7a1.7 1.7 0 0 0-1.4 1c-.8.5-1.3.7-1.3.9h.4l.3.4v.4c0 .2-1.5 3.4-4.6 9.6-2.7 6.1-4 9.4-4.1 10-1 .2-1.4.7-1.6 1.1 0 .2.2.3.9.4v.1l-.4.5v.4c0 .2.7.4 2 .6l.1-.2c0 .6 0 1.2-.2 1.8h.1c.4-.4.7-1 .8-1.5h.1c.2 0 .3.1.4.4l-1.7 4 .2.2c1.2-3 2-4.7 2.3-5l8.2-1h.3a.1.1 0 0 0 .1 0h.3l.3-.2h-.1v.2h.1l3.1-.3c.8-.1 1.2-.4 1.2-.7 0-.2.4-.3 1.3-.4h.4l1.4-.2c0-.5.2-.8.5-.9v-.1a4 4 0 0 0-1 .1h-1a1 1 0 0 1-.5.1h-2l-.3.2h-.5l-.6-.2-.3.2h-.5c2.6-.4 3.9-.7 3.8-1.1h.2a.3.3 0 0 1 .2.2l.7-.2v-.2l-6.2.2h-1l-.4.2-.3-.1-1.8.3h-1.7l-1.5.1h-.7a35.5 35.5 0 0 1 3.8-8.5h.4l1-.3h.5c1 0 2-.3 3-.7h1.6l2.2-.3 3.1-.6v-.3c-.4 0-.6 0-.6-.2 0-.3-.4-.4-1-.4v-.3l.6-.2h1.7v-.3h-1v-.4h.7l.1-.3-1.3-.1a57.1 57.1 0 0 1-9.3.3l-.2-.2c1.6-3.4 2.6-5.1 2.9-5.1l-.3.6v.1h.3c.6-1.5 1.1-2.3 1.6-2.3 1.9-.2-.2-.2 3.7-.9h.4c1.6-.3 3.8-.5 6.6-.8v-.3H683l.5-.3v.1c.1 0 .2 0 .3-.2l.6.1 1.3-.2h.8c.3-.2.4-.4.4-.5v-.1a3 3 0 0 1-.9 0 .3.3 0 0 1 .3-.3l1.7-.2 1-.2v.1l.4-.1-.3 1h-.3v-.5h-.1c-2.2 6-3.1 8.8-5.1 13.1-.4 1.3-.7 2-1 2l.1.2h.2c0 .6 0 1.3-.4 1.8a14 14 0 0 1-1.8 4.3V172.9a.2.2 0 0 1 0 .2h-.4c0-.4 0-.5-.3-.5h-.1c-.3.4-.5 1-.6 1.5h.1a.7.7 0 0 0 .5-.7h.6c-.2.3-.3.6-.3 1h.1l-.2.7v.1c.3 0 .6 0 .8.3.3 0 .5-.2.6-.3h2.7l.9-.3H687.3l.2-.1h1.7v.2h-.5v.2s.2 0 .3-.2c.2 0 .3 0 .3.3h-1.7v.2l.1.1h2.2l.6-.2h.4l.6-.1c.6 0 .5-.1 1.5-.3.8 0 1.5-.2 2.2-.4.5 0 .2 0 .3-.1h.4-2.9l.8-.2h.4l.2-.1c1.1 0 1.5.3 7-.8.2 0 .2-.4.4-1 0 .1-.2.1-.2 0l-1.6.3-.2-.2h.9c.3 0 .6-.2.9-.4 0 0-.2.1 0 .1Zm-40.3.6h-.4l.6-1.7h.3c0 .6-.3 1.2-.5 1.7Zm.4-1.8v-.1c0-.2.1-.3.3-.3 0 .3 0 .4-.3.4Zm5.2 4h-.6.6Zm-.8 0-.6.3h-1v-.3l1.7-.1h-.1Zm5-24h-.3c0-.2 0-.3.2-.3h.5a.3.3 0 0 1-.2.3h-.1Zm6-1v.2h-.3a.3.3 0 0 1 .2-.3Zm-1.5.5h-.6v-.2c.5 0 1 0 1.5-.2h.2v.4h-.2l-.5-.1a1 1 0 0 1-.4.1Zm.7 2 1-.1-1 .2Zm1-.6v-.1h.6-.6Zm.2-1.6h-.2l.1-.3h1l-.9.3Zm.5 2.2v-.2h.5c.1 0 .2 0 .2.2h-.7Zm2.8-3.8-.6.2h-.1a6 6 0 0 1-1.1 0l1.8-.1v-.1Zm-.7 2.6v.2h-.8l.8-.2Zm1.4.7-.5-.2-.9.2h-.6l-.1-.1h.7l1.6-.3h.8l-1 .3v.1Zm8.3-2.2h.2l1-.6c-.2 1-.7 2-1.4 2.8l-.5-.2.7-2Zm-1.4 2.5c0 .3-.2.4-.3.4v-.3l.3-.1Zm-.9 2.1c0-.5.3-1 .6-1.5v.1c0 .9-.2 1.3-.5 1.3v.5l-.3.7-.1-.7c.1 0 .2-.1.3-.4Zm-.3 1.2-.3 1v-.4c0-.4.2-.6.3-.6Zm-6.7 19h.2v.3l-.2-.1v-.1Zm9.4.3s0-.1-.1 0h-.5v-.1l1.2-.2c-.3 0-.5.1-.7.3Zm-.6-1.7h-.6v-.1h.6l.5-.2h1l.2.1-1.7.1Zm2.5-.3h-.7.6s.2 0 0 .1h.1Zm0 0v-.2h.4v.1h-.4v.1Zm.9 0v-.2l.2-.1a.3.3 0 0 1 .2.2h-.4Zm.9-.2v-.1h.4-.4Zm.6 0v-.3l.2.2h.2-.4Zm8.1-1v-.3.2l-.2.3.2-.1v-.3.1Zm.7.3v.2h.4l-.4-.2Z" style="fill:#f9dc3e;fill:color(display-p3 .9765 .8627 .2431);fill-opacity:1"/><path fill="url(#j)" d="M715.8 217.8a8 8 0 0 1-6.3 0l-16-6.6a8.3 8.3 0 0 1-4.9-6l-3.3 1.4c-.3.1-.5.3-.7.6l-.2.8a1.5 1.5 0 0 0 1 1.4l6.8 2.9a8.3 8.3 0 0 1 5.2 7.7 8.3 8.3 0 0 1-5 7.7h-.1a8 8 0 0 1-6.3 0l-1.6-.6a8 8 0 0 1-11 6l-25-10.4a1.5 1.5 0 0 0-1.9.5l-.2.9a1.5 1.5 0 0 0 1 1.4l6.9 2.8a8.3 8.3 0 0 1 5.1 7.7 8.3 8.3 0 0 1-5 7.7l-2.2 1a3.3 3.3 0 0 1-3.6-.8 3.5 3.5 0 0 1-.8-3.7 3.3 3.3 0 0 1 1.8-1.8l2.2-1c.2 0 .5-.2.6-.5l.3-.9a1.5 1.5 0 0 0-1-1.3l-6.9-3a8.3 8.3 0 0 1-5.1-7.6 8.3 8.3 0 0 1 3.6-7 8 8 0 0 1 7.7-.7l25 10.4a1.5 1.5 0 0 0 1 0c.3 0 .6-.3.7-.5l.3-.9a1.5 1.5 0 0 0-1-1.4l-17.8-7.4a3.4 3.4 0 0 1-1.7-4.4 3.3 3.3 0 0 1 4.2-1.9l17.8 7.4 9 3.8a1.5 1.5 0 0 0 1.2 0h.2a1.4 1.4 0 0 0 .9-1.5 1.5 1.5 0 0 0-1-1.4l-6.9-2.9a8.3 8.3 0 0 1-5.1-7.6 8.3 8.3 0 0 1 5-7.8l12.6-5.3c.8-.3 1.7-.3 2.5 0a3.4 3.4 0 0 1 1.9 4.5c-.3.8-1 1.5-1.8 1.8l-1.9.8a1.4 1.4 0 0 0-.9 1.4 1.5 1.5 0 0 0 1 1.4l15.9 6.7a1.5 1.5 0 0 0 1.1 0c.7-.3 1-1.2.8-1.9-.4-.8-.4-1.8 0-2.6a3.3 3.3 0 0 1 4.3-1.8c.8.3 1.5 1 1.8 1.8.9 2 1 4.3.1 6.3a8 8 0 0 1-4.3 4.5Z"/><path fill="#fff" d="M714.6 215.1a5.2 5.2 0 0 1-4 0l-16-6.6a5.4 5.4 0 0 1-3-3.5 5.4 5.4 0 0 1 .6-4.5l-8 3.4a4.3 4.3 0 0 0-2.7 4.1 4.5 4.5 0 0 0 2.8 4.2l6.8 2.9a5.3 5.3 0 0 1 3.4 5c0 1-.3 2-.9 2.9-.6.9-1.4 1.6-2.3 2h-.2a5.2 5.2 0 0 1-4 0l-6.4-2.6a5.4 5.4 0 0 1 .1 6 5.1 5.1 0 0 1-4.4 2.4c-.7 0-1.4-.2-2-.5l-25-10.4a4.4 4.4 0 0 0-3.4 0 4.3 4.3 0 0 0-2.6 4.2 4.5 4.5 0 0 0 2.8 4.1l6.8 3a5.3 5.3 0 0 1 3.3 4.8 5.3 5.3 0 0 1-3.1 5l-2.2 1h-.3a.4.4 0 0 1-.3-.6l.2-.3 2.2-.9a4.4 4.4 0 0 0 2.7-4.1c0-1.9-1-3.5-2.8-4.2l-6.9-2.9a5.3 5.3 0 0 1-3.3-5 5.3 5.3 0 0 1 3.2-4.9 5.2 5.2 0 0 1 4 0l25 10.4a4.4 4.4 0 0 0 6.1-4.1 4.5 4.5 0 0 0-2.8-4.2l-17.8-7.4a.4.4 0 0 1-.1-.7.4.4 0 0 1 .3 0h.2l17.7 7.4 9 3.7a4.4 4.4 0 0 0 3.5 0h.1a4.4 4.4 0 0 0 2.7-4.2c0-1.8-1-3.4-2.8-4.1l-6.9-3a5.3 5.3 0 0 1-3.3-4.9 5.3 5.3 0 0 1 3.2-5l12.6-5.2H696.7a.4.4 0 0 1 .3.2v.4l-.3.2-1.8.8a4.3 4.3 0 0 0-2.7 4.1 4.5 4.5 0 0 0 2.8 4.2l15.9 6.6a4.4 4.4 0 0 0 3.4 0c2.2-1 3.2-3.5 2.3-5.7v-.2a.4.4 0 0 1 .2-.4.4.4 0 0 1 .3 0l.2.1v.2a5.3 5.3 0 0 1 .1 4 5.2 5.2 0 0 1-2.8 2.8Z" style="fill:#fff;fill-opacity:1"/><path fill="#000" d="M577.6 55.4h6.6v2.1h-4v18.2h4v2.1h-6.6V55.4Zm18.8 2.7c1 0 2 .1 2.7.4.8.3 1.6.7 2.3 1.3l-1.5 1.7c-1-.8-2.1-1.2-3.4-1.2a4 4 0 0 0-3.3 1.5c-.9 1-1.3 2.7-1.3 4.9s.4 3.8 1.3 4.8a4 4 0 0 0 3.3 1.6c.8 0 1.5-.2 2-.4l1.8-1 1.3 1.6c-1.3 1.4-3 2-5.2 2a6.9 6.9 0 0 1-6.5-4c-.6-1.2-.9-2.8-.9-4.6 0-1.8.3-3.3 1-4.6a7 7 0 0 1 6.4-4Zm12.9 3.9c1.8 0 3.2.6 4.2 1.8 1 1.2 1.5 2.8 1.5 4.8s-.5 3.7-1.5 5a5.2 5.2 0 0 1-4.2 1.7c-1.9 0-3.3-.6-4.3-1.7a7.4 7.4 0 0 1-1.5-5c0-2 .5-3.6 1.5-4.8 1-1.2 2.5-1.8 4.3-1.8Zm0 2c-1 0-1.7.5-2.2 1.2-.5.8-.7 2-.7 3.5s.2 2.7.7 3.4c.5.8 1.2 1.1 2.2 1.1 1 0 1.7-.3 2.2-1 .4-.8.7-2 .7-3.6 0-1.5-.3-2.7-.7-3.4a2.4 2.4 0 0 0-2.2-1.1Zm18-2c.7 0 1.3.3 1.8.8.4.6.7 1.5.7 2.8V75h-2.4v-9c0-.8 0-1.2-.2-1.5 0-.3-.3-.4-.7-.4-.6 0-1.3.4-1.8 1.3V75h-2.2v-9c0-.8 0-1.2-.2-1.5 0-.3-.3-.4-.7-.4-.6 0-1.3.4-1.8 1.3V75h-2.4V62.3h2l.2 1.4c.4-.6.8-1 1.2-1.3.4-.3 1-.4 1.5-.4 1.1 0 1.8.5 2.2 1.6.3-.5.8-.9 1.2-1.2.4-.3 1-.4 1.5-.4Zm11.7 0c3 0 4.6 2.2 4.6 6.6 0 2-.4 3.7-1.3 4.9-.8 1.2-2 1.8-3.6 1.8a4 4 0 0 1-3.2-1.4v6l-2.7.3V62.3h2.3l.2 1.7c.5-.7 1-1.2 1.6-1.5.7-.3 1.4-.5 2-.5Zm-.8 2c-.5 0-1 .2-1.5.6-.5.3-.9.7-1.2 1.3v6c.6.9 1.4 1.3 2.5 1.3.9 0 1.6-.3 2-1 .5-.8.8-2 .8-3.5 0-1.7-.2-2.8-.7-3.5a2 2 0 0 0-1.9-1.1Zm14-7.9c.5 0 .9.2 1.2.5.3.3.5.7.5 1.2s-.2.9-.5 1.2c-.3.3-.7.5-1.2.5-.6 0-1-.2-1.3-.5-.3-.3-.5-.7-.5-1.2s.2-.9.5-1.2c.3-.3.7-.5 1.3-.5Zm1.8 17h3.5V75h-10v-2h3.8v-8.7h-3.6v-2h6.3V73Zm13-1.6c0 1.1.6 1.7 1.9 1.7.6 0 1.3-.2 2-.5l.7 1.9c-1 .5-2 .7-3.3.7a4 4 0 0 1-3-1 4 4 0 0 1-1-3v-12h-3.9v-2h6.6v14.2Zm11-2c0 1.3.3 2.2 1 2.8.6.6 1.4 1 2.4 1 .6 0 1.1-.2 1.6-.3.6-.2 1.1-.5 1.7-.9l1.2 1.7a7.8 7.8 0 0 1-4.6 1.6c-2 0-3.5-.7-4.6-1.9a7 7 0 0 1-1.6-4.8 8 8 0 0 1 .7-3.4c.5-1 1.2-1.9 2-2.4 1-.6 2-1 3.1-1a5 5 0 0 1 4 1.8c1 1.1 1.5 2.7 1.5 4.6v1.2h-8.5Zm3-5.5c-1 0-1.6.3-2.2 1-.5.5-.8 1.5-1 2.7h6c0-1.2-.3-2.1-.8-2.8-.5-.6-1.2-1-2-1Zm18-2a6 6 0 0 1 1.9.3l-.5 4.7h-2v-2.6c-.8 0-1.6.4-2.2 1-.7.8-1.2 1.7-1.5 3V73h2.5V75h-7.1v-2h1.9v-8.8h-2v-1.9h4l.5 3c.5-1.1 1-2 1.8-2.5.7-.5 1.6-.8 2.6-.8Zm13.4 15.8h-6.6v-2.1h4V57.5h-4v-2.1h6.6v22.4Zm-96.2 10.4c2.5 0 3.8 1.8 3.8 5.5a7 7 0 0 1-1 4c-.8 1-1.8 1.6-3 1.6s-2-.4-2.8-1.2v5l-2.2.2V88.4h2v1.4c.5-.5 1-1 1.5-1.2.5-.3 1-.4 1.7-.4Zm-.7 1.7c-.4 0-.9.1-1.2.4a4 4 0 0 0-1 1.1v5c.5.7 1.2 1.1 2 1.1a2 2 0 0 0 1.8-.9c.4-.6.5-1.6.5-2.9 0-1.3-.1-2.3-.5-2.9-.3-.6-.9-1-1.6-1Zm12 6.2c0 1 .6 1.4 1.7 1.4.5 0 1-.2 1.6-.4l.6 1.6c-.7.4-1.6.6-2.7.6-1 0-1.9-.3-2.5-1-.6-.5-.9-1.3-.9-2.4V86h-3.2v-1.7h5.5v12Zm9.6-.3c0 .6 0 1 .3 1.4.3.2.7.4 1.2.4.4 0 1-.2 1.3-.5.5-.2.9-.6 1.1-1v-7.7h2.3V99h-2l-.1-1.4c-.4.6-.9 1-1.5 1.2-.6.3-1.2.5-1.8.5-1 0-1.8-.3-2.3-.9-.5-.5-.8-1.3-.8-2.3v-7.7h2.3v7.4Zm19.1-6.8a6 6 0 0 1-1.3.2l-1.7.1c.6.3 1 .7 1.4 1.1.3.4.5 1 .5 1.6 0 .7-.2 1.3-.5 1.8-.4.6-.9 1-1.5 1.3a5 5 0 0 1-2.2.5l-1.4-.2a1 1 0 0 0-.4.4l-.1.5c0 .5.4.8 1.3.8h1.8a5 5 0 0 1 2 .3c.6.3 1 .6 1.4 1.1a2.7 2.7 0 0 1-.9 4c-.9.5-2.2.8-3.9.8-1.2 0-2.1-.1-2.8-.4-.7-.2-1.2-.6-1.5-1-.2-.5-.4-1.1-.4-1.9h2c0 .4 0 .8.2 1 .2.2.5.4.9.5l1.6.2c1.1 0 1.9-.2 2.3-.4.5-.3.7-.7.7-1.2 0-.4-.1-.7-.5-1-.4-.2-.9-.3-1.5-.3h-1.8c-1 0-1.7-.2-2.2-.6-.5-.4-.7-.9-.7-1.4 0-.4.1-.7.3-1 .2-.4.5-.7.9-1-.7-.3-1.1-.7-1.4-1.1-.3-.5-.4-1.1-.4-1.8s.1-1.4.5-2c.4-.5 1-1 1.6-1.3.6-.3 1.4-.4 2.3-.4 1.1 0 2-.1 2.7-.3.7-.2 1.4-.4 2.1-.8l.6 1.9Zm-5.4.7c-.7 0-1.3.2-1.6.6-.4.4-.6 1-.6 1.6 0 .7.2 1.2.6 1.6.4.4.9.6 1.6.6.7 0 1.2-.2 1.5-.6.4-.4.5-1 .5-1.6 0-1.5-.6-2.2-2-2.2Zm12-6.4c.5 0 .8.1 1.1.4.3.2.4.6.4 1s-.1.7-.4 1c-.3.2-.6.4-1 .4a1.4 1.4 0 0 1-1.5-1.4c0-.4.1-.8.4-1 .3-.3.6-.4 1-.4Zm1.6 14h2.9V99H659v-1.6h3.2V90h-3v-1.7h5.2v9Zm6.2-8.9h1.9l.2 1.4a4.5 4.5 0 0 1 3.4-1.6c1 0 1.7.2 2.2.8.5.5.7 1.3.7 2.3V99h-2.2v-6.6l-.1-1.5c-.1-.3-.2-.6-.5-.8l-1-.2c-.4 0-.9.1-1.3.4l-1.1 1.1V99h-2.2V88.4Z" style="fill:#000;fill-opacity:1"/><g filter="url(#k)"><rect width="168" height="168" x="565" y="541" fill="#FAFAFA" rx="14" style="fill:#fafafa;fill:color(display-p3 .9804 .9804 .9804);fill-opacity:1"/></g><path fill="#539E43" d="M648 667c-.5 0-1-.1-1.3-.3l-4.2-2.5c-.6-.3-.3-.5-.1-.5l1.9-.9h.3l3.1 2h.4l12.4-7.2.2-.3V643c0-.2 0-.3-.2-.4l-12.4-7.1h-.4l-12.3 7.1c-.2 0-.2.2-.2.4v14.3s0 .2.2.3l3.3 2c1.9.9 3-.2 3-1.3v-14c0-.3.2-.5.4-.5h1.6c.2 0 .3.2.3.4v14.1c0 2.5-1.3 3.9-3.6 3.9-.7 0-1.3 0-2.9-.8l-3.2-1.8a2.6 2.6 0 0 1-1.3-2.3V643c0-1 .5-1.8 1.3-2.3l12.4-7.1c.7-.5 1.8-.5 2.6 0l12.4 7.1c.8.5 1.3 1.4 1.3 2.3v14.3c0 1-.5 1.8-1.3 2.3l-12.4 7.1c-.4.2-.9.3-1.3.3Zm3.8-9.8c-5.5 0-6.6-2.5-6.6-4.6 0-.2.2-.4.4-.4h1.6c.2 0 .4.1.4.3.2 1.7 1 2.5 4.2 2.5 2.6 0 3.7-.6 3.7-2 0-.8-.3-1.4-4.3-1.8-3.4-.4-5.5-1.1-5.5-3.8 0-2.5 2-4 5.6-4 4 0 6 1.4 6.2 4.3v.3l-.3.1h-1.7a.4.4 0 0 1-.3-.2c-.4-1.7-1.3-2.3-3.9-2.3-2.8 0-3.2 1-3.2 1.7 0 1 .4 1.2 4.3 1.7 3.8.5 5.6 1.2 5.6 3.9s-2.3 4.3-6.2 4.3Z" style="fill:#539e43;fill:color(display-p3 .3255 .6196 .2627);fill-opacity:1"/><path fill="#333" d="M609.5 611c0-.5-.3-1-.8-1.3l-13.2-7.5a2 2 0 0 0-.7-.3h-.1c-.3 0-.5.1-.7.3l-13.2 7.5c-.5.3-.8.8-.8 1.4v20.3c0 .3.2.6.4.7.3.2.6.2.8 0l7.8-4.4c.5-.3.8-.9.8-1.4v-9.5c0-.6.4-1.1.9-1.4l3.3-2 .8-.1c.3 0 .5 0 .8.2l3.3 1.9c.5.3.8.8.8 1.4v9.5c0 .5.3 1 .8 1.4l7.8 4.4a.8.8 0 0 0 .8 0c.3-.1.4-.4.4-.7v-20.3Zm63.3-28a.9.9 0 0 0-.8 0c-.2.2-.4.5-.4.8v20.1c0 .2 0 .4-.2.5h-.6l-3.3-1.9a1.6 1.6 0 0 0-1.6 0l-13.2 7.6c-.5.3-.8.8-.8 1.4v15.2c0 .5.4 1 .8 1.3l13.2 7.6a1.6 1.6 0 0 0 1.6 0l13.2-7.6c.5-.3.8-.8.8-1.3v-37.8c0-.6-.3-1.2-.8-1.4l-7.9-4.4Zm-1.2 38.7c0 .1 0 .2-.2.3l-4.5 2.6a.5.5 0 0 1-.4 0L662 622l-.2-.3v-5.2c0-.2 0-.3.2-.4l4.5-2.6a.5.5 0 0 1 .4 0l4.5 2.6.2.4v5.2Zm45-5.4c.5-.2.8-.8.8-1.3v-3.7c0-.6-.3-1.1-.8-1.4l-13-7.6a1.6 1.6 0 0 0-1.6 0l-13.2 7.6c-.5.3-.8.9-.8 1.4v15.2c0 .5.3 1 .8 1.3l13 7.5c.6.3 1.2.3 1.6 0l8-4.4c.2-.1.4-.4.4-.7 0-.3-.2-.6-.4-.7L698 622a.8.8 0 0 1-.4-.7v-4.7c0-.3.2-.6.4-.7l4.2-2.3a.8.8 0 0 1 .8 0l4.1 2.3c.2.2.4.4.4.7v3.7c0 .3.2.6.4.7a.8.8 0 0 0 .8 0l7.8-4.6Z" style="fill:#333;fill:color(display-p3 .2 .2 .2);fill-opacity:1"/><path fill="#539E43" d="M702.6 615.6a.3.3 0 0 1 .3 0l2.5 1.5s.2.1.2.3v2.9l-.2.3-2.5 1.4a.3.3 0 0 1-.3 0l-2.5-1.5-.2-.2v-3s0-.2.2-.2l2.5-1.5Z" style="fill:#539e43;fill:color(display-p3 .3255 .6196 .2627);fill-opacity:1"/><path fill="url(#l)" d="M631.7 602.4c-.5-.3-1-.3-1.6 0L617 610c-.5.3-.8.8-.8 1.4v15.1c0 .6.3 1.1.8 1.4l13.1 7.6c.5.3 1.1.3 1.6 0l13.2-7.6c.5-.3.8-.8.8-1.4v-15.1c0-.6-.3-1.1-.8-1.4l-13.2-7.6Z"/><path fill="url(#m)" d="m645 610-13.3-7.6-.4-.1-14.8 25.3.4.4 13.2 7.5c.4.3.9.3 1.3.2l13.9-25.4-.4-.3Z"/><path fill="url(#n)" d="m645 628 .7-1-14.5-24.8c-.3 0-.7 0-1 .2L617 610l14.1 25.7c.2 0 .4 0 .6-.2L645 628Z"/><path fill="#000" d="M566.3 488.4h6.6v2.1h-4v18.2h4v2.1h-6.6v-22.4Zm23.6 11.2c0 3.2-.7 5.3-2.1 6.6a8.3 8.3 0 0 1-5.6 1.8h-4v-16.6h3.8a9 9 0 0 1 5.8 1.8c1.4 1.1 2.1 3.3 2.1 6.4Zm-2.9 0c0-2.3-.4-4-1.2-4.8a4.4 4.4 0 0 0-3.3-1.2H581v12.3h1.5c3 0 4.5-2.1 4.5-6.3Zm8.1 3c.1 1.2.5 2 1.1 2.7.6.6 1.4 1 2.4 1 .6 0 1.1-.2 1.7-.3l1.6-.9 1.2 1.7a7.8 7.8 0 0 1-4.6 1.6c-2 0-3.5-.7-4.5-1.9a7 7 0 0 1-1.6-4.8 8 8 0 0 1 .7-3.4c.4-1 1-1.9 2-2.4.8-.6 1.9-1 3-1a5 5 0 0 1 4 1.8c1 1.1 1.5 2.7 1.5 4.6v1.2H595Zm3-5.6c-.8 0-1.5.3-2 1-.6.5-.9 1.5-1 2.7h5.9c0-1.2-.3-2.1-.8-2.8-.5-.6-1.1-1-2-1Zm15.7 11h-3l-4.6-12.7h3l3.1 10.5 3.3-10.5h2.7l-4.5 12.7Zm33-4.7c0 1-.2 1.9-.7 2.6-.5.8-1.3 1.4-2.2 1.8-1 .4-2 .6-3.4.6-2.6 0-4.6-.7-6.1-2.2l1.5-1.7a6.5 6.5 0 0 0 4.6 1.7 4 4 0 0 0 2.4-.7c.7-.4 1-1 1-2 0-.4 0-.8-.3-1.2-.2-.3-.5-.6-1-.9l-2-.8a11 11 0 0 1-4.1-2 3.8 3.8 0 0 1-1.3-3c0-.8.2-1.6.7-2.2.5-.7 1.2-1.3 2-1.6 1-.4 1.9-.6 3-.6a8 8 0 0 1 5.5 2l-1.4 1.7a5.8 5.8 0 0 0-4-1.5 4 4 0 0 0-2.1.5c-.6.4-.9 1-.9 1.6 0 .5.2.8.4 1.1.2.3.6.6 1.2.9l2.3.8c1.6.5 2.8 1 3.7 1.8.8.8 1.2 1.9 1.2 3.3Zm5.5-.8c.1 1.3.5 2.2 1 2.8.7.6 1.5 1 2.5 1 .6 0 1.1-.2 1.7-.3l1.6-.9 1.2 1.7a7.8 7.8 0 0 1-4.6 1.6c-2 0-3.5-.7-4.6-1.9a7 7 0 0 1-1.6-4.8 8 8 0 0 1 .7-3.4c.5-1 1.2-1.9 2-2.4 1-.6 2-1 3.1-1a5 5 0 0 1 4 1.8c1 1.1 1.5 2.7 1.5 4.6v1.2h-8.5Zm3-5.5c-.8 0-1.5.3-2 1-.6.5-1 1.5-1 2.7h5.9c0-1.2-.3-2.1-.8-2.8-.5-.6-1.2-1-2-1Zm18-2a6 6 0 0 1 2 .3l-.5 4.7H673v-2.6c-.9 0-1.6.4-2.3 1-.6.8-1.2 1.7-1.5 3v4.7h2.5v1.9h-7.1v-2h1.9v-8.8h-1.9v-1.9h4l.4 3c.5-1.1 1-2 1.8-2.5.7-.5 1.6-.8 2.7-.8Zm12 13h-3.1l-4.5-12.7h2.9l3.2 10.5 3.2-10.5h2.8l-4.5 12.7Zm9.9-5.5c0 1.3.4 2.2 1 2.8.7.6 1.5 1 2.5 1 .6 0 1.1-.2 1.6-.3.6-.2 1.1-.5 1.7-.9l1.1 1.7c-.5.4-1.2.8-2 1.1-.8.3-1.7.4-2.6.4-1.9 0-3.4-.6-4.5-1.8a7 7 0 0 1-1.6-4.8 8 8 0 0 1 .7-3.4c.5-1 1.2-1.9 2-2.4 1-.6 2-1 3.1-1a5 5 0 0 1 4 1.8c1 1.1 1.5 2.7 1.5 4.6l-.1 1.2h-8.4Zm3-5.5c-.8 0-1.5.3-2 1-.6.5-1 1.5-1 2.7h5.9c0-1.2-.3-2.1-.8-2.8-.5-.6-1.2-1-2-1Zm18-2a6 6 0 0 1 2 .3l-.5 4.7h-2v-2.6c-.8 0-1.6.4-2.2 1-.7.8-1.2 1.7-1.6 3v4.7h2.6v1.9h-7.1v-2h1.9v-8.8h-2v-1.9h4l.5 3c.5-1.1 1-2 1.8-2.5.7-.5 1.6-.8 2.6-.8Zm13.5 15.8H723v-2.1h4v-18.2h-4v-2.1h6.6v22.4ZM605.3 532H603l-.3-6.7a56 56 0 0 1 0-5l-2 9.3h-2l-2.2-9.4a44.5 44.5 0 0 1 0 5.1l-.3 6.7h-2l.7-13.8h2.8l2 9.2 1.9-9.2h2.8l.8 13.8Zm5.8-14.2c.4 0 .7.2 1 .4.2.3.3.6.3 1 0 .3-.1.6-.4.8-.2.3-.5.4-1 .4-.3 0-.6-.1-.9-.4-.2-.2-.3-.5-.3-.9s0-.7.3-1c.3-.1.6-.3 1-.3Zm1.4 12.7h2.6v1.5h-7.5v-1.5h2.8V524h-2.7v-1.5h4.8v8Zm13.1-11.8V532h-1.8l-.1-1.2a3.2 3.2 0 0 1-2.7 1.4 3 3 0 0 1-2.7-1.3c-.6-.9-.9-2.1-.9-3.7 0-1 .2-1.8.5-2.5a4 4 0 0 1 1.3-1.8c.6-.4 1.2-.7 2-.7 1 0 1.8.4 2.4 1v-4.8l2 .3Zm-3.9 5c-.7 0-1.2.4-1.6 1a5 5 0 0 0-.5 2.5c0 2.4.6 3.5 2 3.5.7 0 1.4-.5 2-1.4V525c-.5-.8-1.1-1.1-1.9-1.1Zm14.6-5V532h-1.8l-.1-1.2a3.2 3.2 0 0 1-2.7 1.4 3 3 0 0 1-2.7-1.3c-.6-.9-.9-2.1-.9-3.7 0-1 .2-1.8.5-2.5a4 4 0 0 1 1.3-1.8c.6-.4 1.2-.7 2-.7 1 0 1.8.4 2.4 1v-4.8l2 .3Zm-3.9 5c-.7 0-1.2.4-1.6 1a5 5 0 0 0-.5 2.5c0 2.4.6 3.5 2 3.5.8 0 1.4-.5 2-1.4V525c-.5-.8-1.1-1.1-1.9-1.1Zm11.2 5.7c0 .8.5 1.2 1.5 1.2.4 0 1 0 1.5-.3l.5 1.4a5 5 0 0 1-2.5.5 3 3 0 0 1-2.2-.8 3 3 0 0 1-.8-2.2v-9h-2.9v-1.5h5v10.7Zm8.2-1.5c.1 1 .4 1.6.8 2 .5.5 1.1.8 1.8.8l1.3-.2 1.2-.7.9 1.3-1.6.8c-.6.2-1.2.3-1.9.3-1.4 0-2.5-.4-3.3-1.3-.9-1-1.3-2.1-1.3-3.7 0-.9.2-1.8.6-2.5.3-.8.8-1.4 1.5-1.8.6-.4 1.4-.7 2.3-.7 1.2 0 2.2.5 3 1.3a5 5 0 0 1 1 3.5v.9h-6.3Zm2.3-4.2a2 2 0 0 0-1.6.7c-.4.5-.6 1.2-.7 2.1h4.4c0-.9-.2-1.6-.5-2-.4-.5-1-.8-1.6-.8Zm11.7 8.3-1-6.8-1.2 6.8H661l-1.6-9.5h2l1 8.2 1.3-7h2l1.2 7 1-8.2h1.9l-1.6 9.5h-2.5Zm13-2.3.2.8c.1.2.3.3.6.4l-.5 1.3c-1 0-1.6-.5-2-1.3-.3.5-.7.8-1.2 1-.6.2-1.1.3-1.8.3-1 0-1.7-.2-2.2-.8-.6-.5-.9-1.2-.9-2.1 0-1 .4-1.8 1.2-2.3.8-.6 1.9-.8 3.3-.8h1.4v-.6c0-.6-.2-1-.6-1.4-.3-.2-.8-.4-1.5-.4-.4 0-.8 0-1.2.2l-1.3.3-.6-1.4c1.2-.4 2.3-.7 3.4-.7 1.2 0 2.2.3 2.8.9a3 3 0 0 1 1 2.3v4.3Zm-4 1c.4 0 .8 0 1.1-.3.4-.2.8-.5 1-.9v-2h-1.1c-1 0-1.6 0-2 .4-.5.3-.7.7-.7 1.3 0 .5.2.9.4 1.2.3.2.7.4 1.2.4Zm14.3-8.4c.4 0 1 0 1.4.2l-.3 3.5h-1.5v-2c-.6 0-1.2.3-1.7.9-.5.5-.9 1.2-1.2 2.1v3.6h2v1.4h-5.4v-1.4h1.4v-6.7h-1.4v-1.4h3l.3 2.2c.4-.8.8-1.4 1.4-1.8.5-.4 1.2-.6 2-.6Zm5.6 5.6c0 1 .3 1.6.8 2 .5.5 1 .8 1.8.8l1.3-.2 1.2-.7.9 1.3-1.6.8c-.6.2-1.2.3-1.9.3-1.4 0-2.6-.4-3.4-1.3-.8-1-1.2-2.1-1.2-3.7 0-.9.2-1.8.6-2.5.3-.8.8-1.4 1.5-1.8.6-.4 1.4-.7 2.3-.7 1.2 0 2.2.5 3 1.3a5 5 0 0 1 1 3.5v.9h-6.3Zm2.3-4.2a2 2 0 0 0-1.6.7c-.4.5-.6 1.2-.7 2.1h4.4c0-.9-.2-1.6-.6-2-.3-.5-.8-.8-1.5-.8Z" style="fill:#000;fill-opacity:1"/><path fill="#666" d="M716.7 396.9c.8 0 1.6-.3 2.4-.8l.7 1c-.4.3-.8.6-1.4.8l-1.7.3c-1.4 0-2.5-.4-3.3-1.3-.8-.9-1.2-2.1-1.2-3.6 0-1 .2-1.8.5-2.6.4-.7.9-1.3 1.6-1.7.6-.5 1.4-.7 2.4-.7 1.2 0 2.2.4 3.1 1.1l-.7 1c-.8-.5-1.7-.8-2.5-.8s-1.5.3-2 1c-.5.6-.8 1.5-.8 2.7 0 1.2.3 2.1.8 2.7.5.6 1.2.9 2 .9Zm13.2-1c0 .4 0 .7.2.9 0 .1.3.3.6.3l-.4 1.1c-1-.1-1.5-.6-1.8-1.3-.3.4-.7.7-1.2 1a4 4 0 0 1-1.7.3c-1 0-1.7-.3-2.3-.8-.5-.5-.8-1.2-.8-2.1 0-1 .4-1.7 1.2-2.3.7-.5 1.8-.8 3.2-.8h1.5v-.7c0-.7-.2-1.2-.6-1.5-.4-.3-1-.4-1.7-.4s-1.5.1-2.5.5l-.4-1.2c1.1-.4 2.2-.6 3.1-.6 1.2 0 2 .3 2.7.8.6.6.9 1.3.9 2.3v4.5Zm-4 1.2c.5 0 1-.2 1.4-.4a3 3 0 0 0 1-1v-2.4H727c-1 0-1.8.2-2.2.5-.4.3-.7.8-.7 1.5 0 1.2.6 1.8 1.9 1.8Zm11.6-1.4c0 .8.5 1.2 1.6 1.2.5 0 1 0 1.6-.3l.4 1.1c-.6.3-1.4.5-2.3.5a3 3 0 0 1-2-.7c-.6-.5-.8-1.1-.8-2V386h-3v-1.2h4.5v11Zm10.7 0c0 .8.5 1.2 1.6 1.2.5 0 1 0 1.6-.3l.4 1.1c-.6.3-1.4.5-2.3.5a3 3 0 0 1-2-.7c-.5-.5-.8-1.1-.8-2V386h-2.9v-1.2h4.4v11Zm25.5-1.7c0 .8-.2 1.6-.6 2.2-.3.6-.8 1.1-1.4 1.5-.6.3-1.3.5-2.2.5-.8 0-1.5-.2-2.1-.5-.6-.4-1.1-.9-1.5-1.5-.3-.7-.4-1.4-.4-2.2v-8.4h1.5v8.4c0 1 .2 1.7.7 2.1.4.5 1 .7 1.8.7.9 0 1.5-.2 2-.7.4-.4.6-1.1.6-2v-8.5h1.6v8.4Zm10.8-5c0 1-.2 1.7-.8 2.3-.5.6-1.3 1-2.2 1.2l3.7 5.5h-1.9l-3.4-5.3h-1.6v5.3h-1.6v-12.4h3.2c1.5 0 2.7.3 3.5.9.8.6 1.1 1.4 1.1 2.6Zm-1.6 0c0-.7-.2-1.3-.7-1.6-.4-.4-1.2-.5-2.1-.5h-1.8v4.6h1.8c1 0 1.6-.2 2-.6.6-.4.8-1 .8-1.8Zm5.2-3.4h1.5v11h5.7l-.2 1.4h-7v-12.4Zm28.6 9c0 .7-.2 1.3-.5 1.9-.4.5-1 1-1.6 1.2a7.3 7.3 0 0 1-4.9 0c-.7-.2-1.4-.6-1.9-1l1-1.1c.4.4 1 .7 1.5 1 .5.2 1.2.3 1.9.3.8 0 1.5-.2 2-.6.6-.4.9-1 .9-1.7 0-.4-.1-.8-.3-1a2 2 0 0 0-.8-.8 8 8 0 0 0-1.6-.6 9 9 0 0 1-3-1.4c-.7-.5-1-1.3-1-2.2 0-.6.1-1.2.5-1.7.3-.4.8-.8 1.4-1a6.1 6.1 0 0 1 4.3 0c.6.1 1.2.5 1.8 1l-1 1a4.4 4.4 0 0 0-3-1.2c-.7 0-1.3.2-1.7.5-.5.3-.7.8-.7 1.4 0 .3 0 .6.2.9l1 .7 1.9.6a7 7 0 0 1 2.7 1.3c.6.6 1 1.4 1 2.5Zm7.2 2.3c.8 0 1.6-.3 2.4-.8l.8 1-1.5.8-1.7.3c-1.4 0-2.5-.4-3.3-1.3-.8-.9-1.2-2.1-1.2-3.6 0-1 .2-1.8.5-2.6.4-.7.9-1.3 1.6-1.7.6-.5 1.4-.7 2.4-.7 1.2 0 2.2.4 3.1 1.1l-.7 1c-.8-.5-1.6-.8-2.4-.8-.9 0-1.6.3-2.1 1-.5.6-.8 1.5-.8 2.7 0 1.2.3 2.1.8 2.7.5.6 1.2.9 2 .9Zm7.9-7a3.8 3.8 0 0 1 3-1.6c1.8 0 2.7 1 2.7 2.8v6.9H836v-6.9c0-.5-.1-1-.4-1.2-.3-.2-.7-.4-1.3-.4-.5 0-1 .2-1.4.5l-1.1 1v7h-1.5v-13.3l1.5-.1v5.2Zm10.4 3.9c0 1 .3 1.8.8 2.3.5.6 1.2.8 2 .8.4 0 .9 0 1.2-.2.4-.1.9-.3 1.3-.6l.7 1a5.3 5.3 0 0 1-3.2 1.1 4 4 0 0 1-3.2-1.3 5.4 5.4 0 0 1-1.2-3.6c0-1 .2-1.8.5-2.6a4 4 0 0 1 1.5-1.7c.6-.5 1.3-.7 2.2-.7 1.2 0 2 .4 2.8 1.3.7.8 1 2 1 3.4v.8h-6.4Zm2.6-4.2c-.8 0-1.4.2-1.8.8-.5.5-.7 1.2-.8 2.2h5c0-1-.3-1.7-.7-2.3a2 2 0 0 0-1.7-.7Zm13.2-1.3c.5 0 1 .2 1.3.6.3.4.5 1 .5 2v7.1h-1.4v-6.8l-.1-1.3c0-.3-.3-.4-.6-.4-.6 0-1.2.4-1.7 1.1v7.4h-1.4v-6.8l-.1-1.3c0-.3-.3-.4-.6-.4-.6 0-1.2.4-1.7 1.1v7.4h-1.4v-9.5h1.2l.1 1.1 1-1a2 2 0 0 1 1-.3c1 0 1.5.4 1.8 1.3l.9-1a2 2 0 0 1 1.2-.3Zm11.3 7.6.1.9.6.3-.4 1.1c-.9-.1-1.5-.6-1.7-1.3-.3.4-.7.7-1.3 1a4 4 0 0 1-1.6.3c-1 0-1.7-.3-2.3-.8-.5-.5-.8-1.2-.8-2.1 0-1 .4-1.7 1.1-2.3.8-.5 1.9-.8 3.3-.8h1.4v-.7c0-.7-.2-1.2-.6-1.5-.3-.3-.9-.4-1.6-.4-.7 0-1.6.1-2.5.5l-.4-1.2c1.1-.4 2.1-.6 3.1-.6 1.2 0 2 .3 2.6.8.6.6 1 1.3 1 2.3v4.5Zm-4 1.2c.5 0 1-.2 1.4-.4a3 3 0 0 0 1-1v-2.4h-1.3c-1 0-1.8.2-2.2.5-.5.3-.7.8-.7 1.5 0 1.2.6 1.8 1.8 1.8ZM368.6 173.7V187h-1.8l-.2-1.2a3.2 3.2 0 0 1-2.6 1.4 3 3 0 0 1-2.7-1.3c-.6-.9-1-2.1-1-3.7 0-1 .2-1.8.5-2.5a4 4 0 0 1 1.3-1.8c.6-.4 1.3-.7 2-.7 1 0 1.8.4 2.4 1v-4.8l2 .3Zm-4 5c-.6 0-1.2.4-1.5 1a5 5 0 0 0-.6 2.5c0 2.4.7 3.5 2 3.5.8 0 1.5-.5 2-1.4V180c-.5-.8-1-1.1-1.8-1.1Zm8.8 4.2c0 1 .3 1.6.7 2 .5.5 1.1.8 1.8.8l1.3-.2 1.3-.7.8 1.3-1.6.8-1.8.3c-1.5 0-2.6-.4-3.4-1.3-.8-1-1.2-2.1-1.2-3.7 0-.9.1-1.8.5-2.5.3-.8.8-1.4 1.5-1.8.7-.4 1.4-.7 2.3-.7 1.3 0 2.3.5 3 1.3a5 5 0 0 1 1.1 3.5v.9h-6.3Zm2.2-4.2a2 2 0 0 0-1.6.7c-.4.5-.6 1.2-.7 2.1h4.4c0-.9-.2-1.6-.5-2-.4-.5-.9-.8-1.6-.8Zm11.8 8.3H385l-3.3-9.5h2.1l2.4 7.8 2.5-7.8h2l-3.3 9.5Zm19.9-1.3c.6 0 1.1-.1 1.5-.3.4-.3.6-.6.6-1l-.2-.6c-.1-.2-.3-.4-.7-.5l-1.4-.5c-1-.3-1.8-.6-2.4-1-.5-.4-.7-1-.7-1.8s.3-1.5 1-2 1.6-.8 2.8-.8a6 6 0 0 1 3.6 1.1l-.9 1.3c-.8-.5-1.7-.8-2.7-.8-1.2 0-1.8.3-1.8 1 0 .3 0 .5.2.6.1.2.4.3.7.5.4 0 .9.3 1.5.4 1 .3 1.8.7 2.3 1 .5.5.8 1.1.8 2 0 1-.4 1.7-1.2 2.2-.8.5-1.8.7-3 .7-1.6 0-2.9-.4-4-1.3l1.2-1.2 1.3.7 1.5.3Zm9-2.8c0 1 .3 1.6.7 2 .5.5 1.1.8 1.8.8l1.3-.2 1.2-.7.9 1.3-1.6.8c-.6.2-1.2.3-1.9.3-1.4 0-2.5-.4-3.3-1.3-.8-1-1.2-2.1-1.2-3.7 0-.9.1-1.8.5-2.5.3-.8.8-1.4 1.5-1.8.6-.4 1.4-.7 2.3-.7 1.3 0 2.2.5 3 1.3a5 5 0 0 1 1 3.5v.9h-6.3Zm2.2-4.2a2 2 0 0 0-1.6.7c-.4.5-.6 1.2-.7 2.1h4.4c0-.9-.2-1.6-.5-2-.4-.5-1-.8-1.6-.8Zm13.5-1.4c.5 0 1 0 1.5.2l-.4 3.5h-1.4v-2c-.7 0-1.3.3-1.8.9-.4.5-.8 1.2-1.1 2.1v3.6h1.9v1.4h-5.3v-1.4h1.4v-6.7h-1.4v-1.4h3l.3 2.2c.3-.8.8-1.4 1.3-1.8.6-.4 1.2-.6 2-.6Zm9 9.7h-2.4l-3.3-9.5h2.1l2.4 7.8 2.5-7.8h2L441 187Zm7.4-4.1c0 1 .3 1.6.8 2 .5.5 1 .8 1.8.8l1.3-.2 1.2-.7.9 1.3-1.6.8c-.6.2-1.2.3-1.9.3-1.4 0-2.6-.4-3.4-1.3-.8-1-1.2-2.1-1.2-3.7 0-.9.2-1.8.5-2.5.4-.8.9-1.4 1.5-1.8.7-.4 1.5-.7 2.4-.7 1.2 0 2.2.5 3 1.3a5 5 0 0 1 1 3.5v.9h-6.3Zm2.3-4.2a2 2 0 0 0-1.6.7c-.4.5-.7 1.2-.7 2.1h4.4c0-.9-.2-1.6-.6-2-.3-.5-.9-.8-1.5-.8Zm13.5-1.4c.5 0 1 0 1.4.2l-.3 3.5h-1.5v-2c-.6 0-1.2.3-1.7.9-.5.5-.9 1.2-1.1 2.1v3.6h1.9v1.4h-5.4v-1.4h1.4v-6.7h-1.4v-1.4h3l.3 2.2c.4-.8.9-1.4 1.4-1.8.5-.4 1.2-.6 2-.6ZM397.3 213.4c0 .8.5 1.2 1.4 1.2.5 0 1 0 1.6-.3l.5 1.4a5 5 0 0 1-2.5.5 3 3 0 0 1-2.2-.8 3 3 0 0 1-.8-2.2v-9h-2.9v-1.5h4.9v10.7Zm10.4-7.2c1.3 0 2.4.5 3.1 1.4.8.9 1.1 2 1.1 3.6s-.3 2.8-1 3.7a4 4 0 0 1-3.3 1.3 4 4 0 0 1-3.1-1.3 5.5 5.5 0 0 1-1.2-3.7c0-1.5.4-2.7 1.2-3.6a4 4 0 0 1 3.2-1.4Zm0 1.6c-.8 0-1.3.3-1.7.9a5 5 0 0 0-.5 2.5c0 1.2.1 2 .5 2.7.4.5 1 .8 1.6.8.8 0 1.3-.3 1.7-.9a5 5 0 0 0 .5-2.6c0-1.1-.2-2-.5-2.5-.4-.6-1-.9-1.6-.9Zm14.1 5.9c0 .3 0 .6.2.8.1.2.3.3.6.4l-.5 1.3c-1 0-1.7-.5-2-1.3-.3.5-.8.8-1.3 1-.5.2-1 .3-1.7.3-1 0-1.7-.2-2.3-.8-.5-.5-.8-1.2-.8-2.1 0-1 .4-1.8 1.1-2.3.8-.6 2-.8 3.4-.8h1.3v-.6c0-.6-.1-1-.5-1.4-.4-.2-.9-.4-1.6-.4-.3 0-.7 0-1.1.2-.5 0-1 .2-1.4.3l-.5-1.4c1.2-.4 2.3-.7 3.3-.7 1.3 0 2.2.3 2.9.9a3 3 0 0 1 1 2.3v4.3Zm-4.1 1c.4 0 .8 0 1.2-.3.4-.2.7-.5 1-.9v-2h-1.2c-.9 0-1.6 0-2 .4-.4.3-.6.7-.6 1.3 0 .5.1.9.4 1.2.3.2.7.4 1.2.4Zm15.2-12V216H431l-.1-1.2a3.2 3.2 0 0 1-2.7 1.4 3 3 0 0 1-2.7-1.3c-.6-.9-.9-2.1-.9-3.7 0-1 .2-1.8.5-2.5a4 4 0 0 1 1.3-1.8c.5-.4 1.2-.7 2-.7 1 0 1.7.4 2.4 1v-4.8l2 .3Zm-3.9 5c-.7 0-1.2.4-1.6 1a5 5 0 0 0-.5 2.5c0 2.4.6 3.5 2 3.5.7 0 1.4-.5 2-1.4V209c-.5-.8-1.1-1.1-1.9-1.1Z" style="fill:#666;fill:color(display-p3 .4 .4 .4);fill-opacity:1"/><path fill="#0089CE" d="M755 185.7c.7 0 1.2-.1 1.6-.3.3-.3.5-.6.5-1 0-.3 0-.5-.2-.6 0-.2-.3-.4-.6-.5l-1.5-.5c-1-.3-1.8-.6-2.3-1-.5-.4-.8-1-.8-1.8s.4-1.5 1-2c.7-.5 1.6-.8 2.8-.8a6 6 0 0 1 3.6 1.1l-.8 1.3c-.9-.5-1.8-.8-2.7-.8-1.2 0-1.8.3-1.8 1 0 .3 0 .5.2.6.1.2.3.3.7.5l1.5.4c1 .3 1.8.7 2.3 1 .5.5.8 1.1.8 2 0 1-.5 1.7-1.3 2.2-.8.5-1.8.7-3 .7-1.5 0-2.8-.4-3.8-1.3l1-1.2 1.3.7c.5.2 1 .3 1.6.3Zm11.1-8.5c1.4 0 2.5.5 3.2 1.4.8.9 1.1 2 1.1 3.6s-.4 2.8-1.1 3.7a4 4 0 0 1-3.2 1.3 4 4 0 0 1-3.2-1.3 5.5 5.5 0 0 1-1-3.7c0-1.5.3-2.7 1-3.6a4 4 0 0 1 3.2-1.4Zm0 1.6c-.7 0-1.2.3-1.6.9a5 5 0 0 0-.6 2.5c0 1.2.2 2 .6 2.7.3.5.9.8 1.6.8.8 0 1.3-.3 1.7-.9a5 5 0 0 0 .5-2.6c0-1.1-.2-2-.5-2.5-.4-.6-1-.9-1.7-.9Zm9 5.3c0 .6 0 1 .3 1.2.2.3.6.4 1 .4s.9-.1 1.3-.4a3 3 0 0 0 1-1v-6.8h2v9.5h-1.8l-.1-1.2c-.4.4-.8.8-1.3 1a4 4 0 0 1-1.7.4c-1 0-1.6-.2-2-.7-.5-.5-.8-1.2-.8-2.1v-6.9h2v6.6Zm15.4-6.8c.5 0 1 0 1.4.2l-.3 3.5h-1.4v-2c-.7 0-1.3.3-1.8.9-.5.5-.8 1.2-1.1 2.1v3.6h1.9v1.4h-5.3v-1.4h1.4v-6.7h-1.4v-1.4h2.9l.3 2.2c.4-.8.9-1.4 1.4-1.8.5-.4 1.2-.6 2-.6Zm8.6 8.3c.7 0 1.5-.3 2.3-.8l1 1.3-1.6.8-1.8.3c-1.4 0-2.6-.4-3.4-1.3a5.2 5.2 0 0 1-1.2-3.6c0-1 .2-1.8.5-2.6.4-.8 1-1.4 1.6-1.8a5 5 0 0 1 5.8.5l-.9 1.3a4 4 0 0 0-2.3-.8c-.8 0-1.4.3-1.9.8-.5.6-.7 1.5-.7 2.6s.2 2 .7 2.5c.5.5 1 .8 1.9.8Zm7.8-2.7c0 1 .3 1.6.8 2 .5.5 1 .8 1.8.8l1.2-.2 1.3-.7.8 1.3-1.5.8c-.6.2-1.3.3-2 .3-1.4 0-2.5-.4-3.3-1.3-.8-1-1.2-2.1-1.2-3.7 0-.9.2-1.8.5-2.5.4-.8.9-1.4 1.5-1.8.7-.4 1.5-.7 2.3-.7 1.3 0 2.3.5 3 1.3a5 5 0 0 1 1.1 3.5v.9h-6.3Zm2.2-4.2a2 2 0 0 0-1.5.7c-.4.5-.7 1.2-.7 2.1h4.4c0-.9-.2-1.6-.6-2-.4-.5-.9-.8-1.6-.8Zm22.2-1.5c2.3 0 3.4 1.7 3.4 5 0 1.5-.3 2.7-1 3.7-.5.9-1.4 1.3-2.6 1.3a3 3 0 0 1-2.4-1v4.5l-2 .2v-13.4h1.7l.1 1.2c.4-.5.8-.8 1.3-1 .4-.3 1-.5 1.5-.5Zm-.6 1.6a2 2 0 0 0-1.1.4c-.4.2-.7.6-1 1v4.4c.5.7 1.2 1 2 1 .6 0 1.2-.2 1.5-.8a5 5 0 0 0 .5-2.6c0-1.2-.1-2-.4-2.6-.4-.5-.8-.8-1.5-.8Zm14 5.9.1.8c.1.2.3.3.6.4l-.5 1.3c-1 0-1.7-.5-2-1.3-.3.5-.8.8-1.3 1-.5.2-1 .3-1.7.3-1 0-1.7-.2-2.3-.8-.5-.5-.8-1.2-.8-2.1 0-1 .4-1.8 1.1-2.3.8-.6 2-.8 3.4-.8h1.3v-.6c0-.6-.1-1-.5-1.4-.4-.2-.9-.4-1.6-.4-.3 0-.7 0-1.1.2-.5 0-1 .2-1.4.3l-.5-1.4c1.2-.4 2.3-.7 3.3-.7 1.3 0 2.3.3 2.9.9a3 3 0 0 1 1 2.3v4.3Zm-4.2 1c.4 0 .8 0 1.2-.3.4-.2.7-.5 1-.9v-2h-1.2c-.9 0-1.6 0-2 .4-.4.3-.6.7-.6 1.3 0 .5.1.9.4 1.2.3.2.7.4 1.2.4Zm15.5.8-1.2.5c-.5.2-1 .2-1.5.2-1.1 0-2-.2-2.5-.8a3 3 0 0 1-1-2.3V179h-2v-1.5h2v-2.1l2-.3v2.4h3.3l-.2 1.5h-3v5.1c0 .5.1.9.4 1.2.2.2.7.3 1.2.3.7 0 1.3-.1 1.8-.4l.7 1.3Zm4.8-7.8a3.8 3.8 0 0 1 3-1.4c.9 0 1.5.2 2 .7.4.5.6 1.2.6 2v7h-2v-6.6c0-.6-.1-1-.3-1.2-.2-.3-.6-.4-1-.4-.5 0-.9.1-1.3.4l-1 1v6.8h-2v-13.3l2-.2v5.2Z" style="fill:#0089ce;fill:color(display-p3 0 .5389 .8083);fill-opacity:1"/><path fill="#666" d="M782.2 201.8c.4 0 .7.2 1 .4.2.3.3.6.3 1 0 .3-.1.6-.4.8-.2.3-.5.4-.9.4s-.7-.1-1-.4c-.2-.2-.3-.5-.3-.9s.1-.7.3-1c.3-.1.6-.3 1-.3Zm1.4 12.7h2.6v1.5h-7.5v-1.5h2.9V208h-2.8v-1.5h4.8v8Zm5.5-8h1.8l.1 1.2a4 4 0 0 1 3-1.5c1 0 1.6.3 2 .8.5.5.7 1.2.7 2v7h-2v-7.3l-.5-.7-.8-.2c-.5 0-.9.1-1.3.4l-1 1v6.8h-2v-9.5Zm15.8-4.7c.4 0 .7.2 1 .4.2.2.3.5.3 1 0 .3-.1.6-.4.8-.2.3-.5.4-1 .4-.3 0-.6-.1-.9-.4-.2-.2-.3-.5-.3-.9 0-.3 0-.6.3-.9.3-.2.6-.4 1-.4Zm1.5 12.2c0 1.7-.5 3-1.5 4-1 .9-2.7 1.5-4.8 1.9l-.3-1.6c1.5-.2 2.7-.7 3.4-1.3.8-.7 1.2-1.6 1.2-2.9V208h-3.7v-1.5h5.7v7.5Zm5.8-2.1c.1 1 .4 1.6.8 2 .5.5 1.1.8 1.8.8l1.3-.2 1.2-.7.9 1.3-1.6.8c-.6.2-1.2.3-1.9.3-1.4 0-2.5-.4-3.3-1.3-.8-1-1.2-2.1-1.2-3.7 0-.9.1-1.8.5-2.5.3-.8.8-1.4 1.5-1.8.6-.4 1.4-.7 2.3-.7 1.3 0 2.2.5 3 1.3a5 5 0 0 1 1 3.5v.9h-6.3Zm2.3-4.2a2 2 0 0 0-1.6.7c-.4.5-.6 1.2-.7 2.1h4.4c0-.9-.2-1.6-.5-2-.4-.5-1-.8-1.6-.8Zm11.4 6.9c.7 0 1.5-.3 2.3-.8l1 1.3-1.6.8-1.8.3c-1.4 0-2.6-.4-3.4-1.3a5.2 5.2 0 0 1-1.2-3.6c0-1 .2-1.8.5-2.6.4-.8 1-1.4 1.6-1.8a5 5 0 0 1 5.8.5l-.9 1.3a4 4 0 0 0-2.3-.8c-.8 0-1.4.3-1.9.8-.5.6-.7 1.5-.7 2.6s.2 2 .7 2.5c.5.5 1 .8 1.9.8Zm14 .9-1.2.5c-.5.2-1 .2-1.5.2-1.1 0-2-.2-2.5-.8a3 3 0 0 1-1-2.3V208h-2v-1.5h2v-2.1l2.1-.3v2.4h3.2l-.2 1.5h-3v5.1c0 .5.1.9.4 1.2.3.2.7.3 1.3.3.6 0 1.2-.1 1.7-.4l.7 1.3Z" style="fill:#666;fill:color(display-p3 .4 .4 .4);fill-opacity:1"/><path fill="#0089CE" d="M792.1 600.4c1 0 2 .2 2.8.6l-.6 1.4a5 5 0 0 0-2-.4c-.6 0-1 .1-1.4.4-.3.2-.4.6-.4 1v1.8h3.1l-.2 1.5h-3v7.3h-2v-7.3h-2.1v-1.5h2.1v-1.7c0-.6.2-1.2.5-1.6a3 3 0 0 1 1.3-1c.5-.3 1.2-.5 1.9-.5Zm6.6 9.5c0 1 .3 1.6.8 2 .5.5 1 .8 1.8.8l1.3-.2 1.2-.7.9 1.3-1.6.8c-.6.2-1.2.3-1.9.3-1.4 0-2.6-.4-3.4-1.3-.8-1-1.2-2.1-1.2-3.7 0-.9.2-1.8.6-2.5.3-.8.8-1.4 1.5-1.8.6-.4 1.4-.7 2.3-.7 1.2 0 2.2.5 3 1.3a5 5 0 0 1 1 3.5v.9h-6.3Zm2.3-4.2a2 2 0 0 0-1.6.7c-.4.5-.6 1.2-.7 2.1h4.4c0-.9-.2-1.6-.6-2-.3-.5-.8-.8-1.5-.8Zm14.7 7.8-1.3.5c-.4.2-1 .2-1.5.2-1 0-1.9-.2-2.5-.8a3 3 0 0 1-.9-2.3V606h-2v-1.5h2v-2.1l2-.3v2.4h3.3l-.3 1.5h-3v5.1c0 .5.2.9.5 1.2.2.2.6.3 1.2.3.7 0 1.2-.1 1.8-.4l.7 1.3Zm7.4-1c.7 0 1.5-.2 2.3-.7l1 1.3-1.6.8-1.8.3c-1.4 0-2.6-.4-3.4-1.3a5.2 5.2 0 0 1-1.2-3.6c0-1 .2-1.8.5-2.6.4-.8 1-1.4 1.6-1.8a5 5 0 0 1 5.8.5l-.9 1.3a4 4 0 0 0-2.3-.8c-.8 0-1.4.3-1.9.8-.5.6-.7 1.4-.7 2.6 0 1.1.2 2 .7 2.5.5.5 1 .8 1.9.8Zm8.1-6.8c.4-.5.8-.9 1.4-1.1.5-.2 1-.4 1.6-.4.8 0 1.5.3 2 .8.4.5.6 1.2.6 2v7h-2v-6.6c0-.6-.1-1-.3-1.2-.2-.3-.6-.4-1-.4-.5 0-.9.1-1.3.4l-1 1v6.8h-2v-13.3l2-.2v5.2Zm21 5.3-.9 3h-2.1l4-12.4h2.5l4 12.4h-2.2l-.9-3h-4.4Zm4-1.6-1.8-6.2-1.8 6.2h3.6Zm13.7-4c0 1.5-.4 2.5-1.3 3.2-.8.6-2 1-3.5 1h-1.5v4.4h-2.1v-12.4h3.4a6 6 0 0 1 3.7 1c.9.6 1.3 1.6 1.3 2.9Zm-2.2 0c0-1.5-.8-2.3-2.6-2.3h-1.5v4.9h1.5a3 3 0 0 0 2-.6c.4-.4.6-1 .6-2Zm12-2.2h-2.8v9.2h2.7v1.6h-7.5v-1.6h2.7v-9.2h-2.7v-1.6h7.5v1.6ZM405.2 611.6c.7 0 1.5-.3 2.3-.8l1 1.3-1.6.8-1.8.3c-1.4 0-2.6-.4-3.4-1.3a5.2 5.2 0 0 1-1.2-3.6c0-1 .2-1.8.6-2.6.3-.8.9-1.4 1.6-1.8a5 5 0 0 1 5.8.5l-1 1.3a4 4 0 0 0-2.3-.8c-.8 0-1.4.3-1.9.8-.4.6-.7 1.4-.7 2.6 0 1.1.3 2 .7 2.5.5.5 1.1.8 1.9.8Zm13.4-1c0 .4 0 .7.2.9 0 .2.3.3.5.4l-.5 1.3c-1 0-1.6-.5-2-1.3-.3.5-.7.8-1.2 1-.5.2-1.1.3-1.7.3-1 0-1.8-.2-2.3-.8-.6-.5-.9-1.2-.9-2.1 0-1 .4-1.8 1.2-2.3.8-.6 2-.8 3.3-.8h1.4v-.6c0-.6-.2-1-.5-1.4-.4-.2-1-.4-1.6-.4-.3 0-.7 0-1.2.2l-1.3.3-.5-1.4c1.1-.4 2.2-.7 3.3-.7 1.3 0 2.2.3 2.8.9a3 3 0 0 1 1 2.3v4.3Zm-4.1 1.2c.4 0 .8-.1 1.2-.4.4-.2.7-.5.9-.9v-2h-1.1c-1 0-1.6 0-2 .4-.4.3-.6.7-.6 1.3 0 .5 0 .9.3 1.2.3.2.7.4 1.3.4Zm11.7-1.4c0 .8.5 1.2 1.5 1.2.4 0 1 0 1.5-.3l.5 1.4a5 5 0 0 1-2.5.5 3 3 0 0 1-2.2-.8 3 3 0 0 1-.8-2.2v-9h-2.9v-1.5h5v10.7Zm10.7 0c0 .8.5 1.2 1.5 1.2.5 0 1 0 1.5-.3l.5 1.4a5 5 0 0 1-2.5.5 3 3 0 0 1-2.2-.8 3 3 0 0 1-.8-2.2v-9h-2.8v-1.5h4.8v10.7Zm19.8-4.5h4.5v1.6h-4.5v4h5.5v1.5h-7.6v-12.4h7.5l-.2 1.6h-5.2v3.7Zm15.8-6.2V613h-1.8l-.1-1.2a3.2 3.2 0 0 1-2.7 1.4 3 3 0 0 1-2.6-1.3c-.7-.9-1-2.1-1-3.7 0-1 .2-1.8.5-2.5a4 4 0 0 1 1.3-1.8c.6-.4 1.2-.7 2-.7 1 0 1.8.4 2.4 1v-4.8l2 .3Zm-3.9 5c-.7 0-1.2.4-1.6 1a5 5 0 0 0-.5 2.5c0 2.4.7 3.5 2 3.5.8 0 1.4-.5 2-1.4V606c-.5-.8-1.1-1.1-1.9-1.1Zm10.8-5.9c.4 0 .7.2 1 .4.2.3.4.6.4 1 0 .3-.2.6-.4.8-.3.3-.6.4-1 .4s-.7-.1-1-.4c-.1-.2-.3-.5-.3-.9s.2-.7.4-1c.2-.1.6-.3 1-.3Zm1.4 12.7h2.6v1.5H476v-1.5h2.8V605h-2.7v-1.5h4.7v8Zm13.5 1-1.3.5c-.4.2-1 .2-1.5.2-1 0-1.9-.2-2.5-.8a3 3 0 0 1-.9-2.3V605h-2v-1.5h2v-2.1l2-.3v2.4h3.3l-.2 1.5h-3v5.1c0 .5.1.9.4 1.2.2.2.6.3 1.2.3.7 0 1.2-.1 1.8-.4l.7 1.3Zm6.6-9.3c1.4 0 2.4.5 3.2 1.4.7.9 1 2 1 3.6s-.3 2.8-1 3.7a4 4 0 0 1-3.2 1.3 4 4 0 0 1-3.2-1.3 5.5 5.5 0 0 1-1.1-3.7c0-1.5.4-2.7 1.1-3.6a4 4 0 0 1 3.2-1.4Zm0 1.6c-.7 0-1.3.3-1.7.9a5 5 0 0 0-.5 2.5c0 1.2.2 2 .5 2.7.4.5 1 .8 1.7.8s1.3-.3 1.6-.9a5 5 0 0 0 .6-2.6c0-1.1-.2-2-.6-2.5-.3-.6-.9-.9-1.6-.9Zm13.6-1.5c.5 0 1 0 1.5.2l-.4 3.5h-1.4v-2c-.7 0-1.2.3-1.7.9-.5.5-.9 1.2-1.2 2.1v3.6h2v1.4h-5.4v-1.4h1.4v-6.7h-1.4v-1.4h3l.3 2.2c.4-.8.8-1.4 1.3-1.8.6-.4 1.3-.6 2-.6Z" style="fill:#0089ce;fill:color(display-p3 0 .5389 .8083);fill-opacity:1"/><path fill="#000" d="M106 473.4h6.6v2.1h-4v18.2h4v2.1H106v-22.4Zm22.4 5.2h-3.6v12.3h3.6v2.1h-10v-2.1h3.6v-12.3h-3.6v-2.2h10v2.2Zm15.5 6c0 3.2-.7 5.3-2.1 6.6a8.3 8.3 0 0 1-5.6 1.8h-4v-16.6h3.8a9 9 0 0 1 5.8 1.8c1.4 1.1 2.1 3.3 2.1 6.4Zm-2.9 0c0-2.3-.4-4-1.2-4.8a4.4 4.4 0 0 0-3.3-1.2H135v12.3h1.5c3 0 4.5-2.1 4.5-6.3Zm9.3-1h6v2h-6v5.3h7.3v2.1h-10.1v-16.6h10l-.4 2.2h-6.8v5Zm24.1 11 10.2-21 2.1.9-10.1 21-2.2-1Zm33-11h6v2h-6v5.3h7.4v2.1h-10.1v-16.6h10l-.4 2.2h-6.9v5Zm21.1-8.4V493h-2.4l-.2-1.6a4.2 4.2 0 0 1-3.5 2 4 4 0 0 1-3.6-1.9 8.6 8.6 0 0 1-1.2-4.8c0-1.3.2-2.5.6-3.5.4-1 1-1.8 1.8-2.3a4.1 4.1 0 0 1 5.9.5v-6.5l2.6.3Zm-5.2 6.9c-.9 0-1.6.3-2.1 1.1s-.7 2-.7 3.5c0 3 .9 4.6 2.6 4.6 1 0 2-.6 2.7-1.9v-6c-.6-.9-1.5-1.3-2.5-1.3Zm14.4-8c.6 0 1 .2 1.3.5.3.3.5.7.5 1.2s-.2.9-.5 1.2c-.3.3-.7.5-1.3.5-.5 0-1-.2-1.2-.5-.4-.3-.5-.7-.5-1.2s.1-.9.5-1.2c.3-.3.7-.5 1.2-.5Zm1.9 17h3.4v1.9h-9.9v-2h3.8v-8.7h-3.6v-2h6.3V491Zm18 1.2c-.5.3-1 .6-1.7.7-.7.2-1.3.3-2 .3-1.5 0-2.6-.4-3.4-1a4 4 0 0 1-1.2-3.1v-6.9h-2.8v-2h2.8v-2.8l2.7-.3v3.1h4.3l-.3 2h-4v6.8c0 .7.2 1.2.6 1.6.3.3.9.5 1.6.5.9 0 1.7-.2 2.4-.6l1 1.7Zm8.8-12.3c1.8 0 3.2.6 4.2 1.8 1 1.2 1.5 2.8 1.5 4.8s-.5 3.7-1.5 5a5.2 5.2 0 0 1-4.3 1.7c-1.8 0-3.2-.6-4.2-1.7a7.4 7.4 0 0 1-1.5-5c0-2 .5-3.6 1.5-4.8 1-1.2 2.4-1.8 4.3-1.8Zm0 2c-1 0-1.8.5-2.3 1.2-.4.8-.7 2-.7 3.5s.3 2.7.7 3.4c.5.8 1.3 1.1 2.2 1.1 1 0 1.7-.3 2.2-1 .5-.8.7-2 .7-3.6 0-1.5-.2-2.7-.7-3.4a2.4 2.4 0 0 0-2.1-1.1Zm18.1-2a6 6 0 0 1 2 .3l-.5 4.7h-2v-2.6c-.8 0-1.6.4-2.2 1-.7.8-1.2 1.7-1.6 3v4.7h2.6v1.9h-7.1v-2h1.9v-8.8h-2v-1.9h4l.5 3c.5-1.1 1-2 1.8-2.5.7-.5 1.6-.8 2.6-.8Zm13.5 15.8h-6.6v-2.1h4v-18.2h-4v-2.1h6.6v22.4ZM113.2 63.4h6.5v2.1h-4v18.2h4v2.1h-6.5V63.4Zm23.3 15c0 1-.2 1.8-.8 2.5-.5.8-1.2 1.4-2.1 1.8-1 .4-2.1.6-3.4.6-2.6 0-4.6-.7-6.1-2.2l1.5-1.7a6.5 6.5 0 0 0 4.6 1.7 4 4 0 0 0 2.4-.7c.7-.4 1-1 1-2l-.3-1.2c-.2-.3-.5-.6-1-.9l-2-.8a11 11 0 0 1-4.1-2 3.8 3.8 0 0 1-1.3-3c0-.8.2-1.6.7-2.2.5-.7 1.2-1.3 2-1.6.9-.4 1.9-.6 3-.6a8 8 0 0 1 5.5 2l-1.5 1.7a5.8 5.8 0 0 0-3.9-1.5 4 4 0 0 0-2.2.5c-.5.4-.8 1-.8 1.6 0 .5.1.8.4 1.1.2.3.6.6 1.1.9l2.4.8c1.6.5 2.8 1 3.6 1.8.9.8 1.3 1.9 1.3 3.3Zm8.3-8.4c1.9 0 3.3.6 4.3 1.8 1 1.2 1.5 2.8 1.5 4.8s-.5 3.7-1.5 5a5.2 5.2 0 0 1-4.3 1.7c-1.8 0-3.2-.6-4.2-1.7a7.4 7.4 0 0 1-1.5-5c0-2 .5-3.6 1.5-4.8 1-1.2 2.4-1.8 4.3-1.8Zm0 2c-1 0-1.7.5-2.2 1.2-.4.8-.7 2-.7 3.5s.3 2.7.7 3.4c.5.8 1.3 1.1 2.2 1.1 1 0 1.7-.3 2.2-1 .5-.8.7-2 .7-3.6 0-1.5-.2-2.7-.7-3.4a2.4 2.4 0 0 0-2.2-1.1Zm12 7.2c0 .7 0 1.3.4 1.6.3.3.7.5 1.3.5a3 3 0 0 0 1.7-.5 4 4 0 0 0 1.3-1.3v-9.2h2.7V83h-2.3l-.2-1.6a5.2 5.2 0 0 1-4 2c-1.2 0-2.1-.4-2.7-1-.6-.7-1-1.7-1-2.9v-9.2h2.7v8.9Zm20.5-9.2a6 6 0 0 1 2 .3l-.5 4.7h-2v-2.6c-.8 0-1.6.4-2.2 1-.7.8-1.2 1.7-1.6 3V81h2.6V83h-7.1v-2h1.8v-8.8h-1.8v-1.9h3.9l.5 3c.5-1.1 1-2 1.8-2.5.7-.5 1.6-.8 2.6-.8Zm11.5 11.1c1 0 2-.4 3-1l1.3 1.7a7.3 7.3 0 0 1-4.4 1.6c-2 0-3.5-.7-4.6-1.9a6.9 6.9 0 0 1-1.6-4.8c0-1.3.3-2.4.7-3.4.5-1 1.3-1.8 2.2-2.4 1-.6 2-1 3.3-1 1.7 0 3.2.6 4.4 1.6l-1.2 1.7c-1-.7-2-1-3.1-1a3 3 0 0 0-2.5 1.1c-.6.8-1 1.9-1 3.4s.4 2.6 1 3.3c.6.8 1.4 1.1 2.5 1.1Zm10.4-3.6c0 1.3.4 2.2 1 2.8.7.6 1.5 1 2.4 1 .6 0 1.2-.2 1.7-.3.6-.2 1.1-.5 1.7-.9l1.1 1.7-2 1.1c-.9.3-1.7.4-2.6.4-2 0-3.4-.6-4.5-1.8a7 7 0 0 1-1.6-4.8 8 8 0 0 1 .7-3.4c.4-1 1.1-1.9 2-2.4.9-.6 2-1 3-1a5 5 0 0 1 4 1.8c1 1.1 1.5 2.7 1.5 4.6v1.2h-8.4Zm3-5.5c-.9 0-1.6.3-2.1 1-.6.5-.9 1.5-1 2.7h6c-.1-1.2-.4-2.1-.8-2.8-.5-.6-1.2-1-2.1-1ZM232 66c1 0 2 .1 2.8.4.7.3 1.5.7 2.2 1.3l-1.5 1.7c-1-.8-2.1-1.2-3.4-1.2a4 4 0 0 0-3.3 1.5c-.8 1-1.3 2.7-1.3 4.9s.5 3.8 1.3 4.8a4 4 0 0 0 3.3 1.6c.8 0 1.5-.2 2-.4l1.8-1 1.3 1.6c-1.3 1.4-3 2-5.2 2a6.9 6.9 0 0 1-6.5-4c-.5-1.2-.9-2.8-.9-4.6 0-1.8.4-3.3 1-4.6a7 7 0 0 1 6.4-4Zm13 3.9c1.7 0 3.1.6 4.1 1.8 1 1.2 1.5 2.8 1.5 4.8s-.5 3.7-1.5 5a5.2 5.2 0 0 1-4.2 1.7c-1.8 0-3.3-.6-4.3-1.7a7.4 7.4 0 0 1-1.4-5c0-2 .5-3.6 1.5-4.8 1-1.2 2.4-1.8 4.2-1.8Zm0 2c-1 0-1.8.5-2.3 1.2-.5.8-.7 2-.7 3.5s.2 2.7.7 3.4c.5.8 1.2 1.1 2.2 1.1 1 0 1.7-.3 2.2-1 .5-.8.7-2 .7-3.6 0-1.5-.2-2.7-.7-3.4a2.4 2.4 0 0 0-2.2-1.1Zm19.2-6.8V83H262l-.2-1.6a4.2 4.2 0 0 1-3.6 2 4 4 0 0 1-3.5-1.9 8.6 8.6 0 0 1-1.2-4.8c0-1.3.2-2.5.6-3.5.4-1 1-1.8 1.7-2.3.8-.6 1.6-1 2.7-1 1.3 0 2.3.6 3.2 1.5v-6.5l2.6.3Zm-5.1 6.9c-1 0-1.7.3-2.2 1.1-.5.8-.7 2-.7 3.5 0 3 .9 4.6 2.6 4.6 1.1 0 2-.6 2.8-1.9v-6c-.7-.9-1.5-1.3-2.5-1.3Zm11.5 5.4c.1 1.3.5 2.2 1.1 2.8.6.6 1.4 1 2.4 1 .6 0 1.2-.2 1.7-.3l1.6-.9 1.2 1.7a7.8 7.8 0 0 1-4.6 1.6c-2 0-3.5-.7-4.5-1.9a7 7 0 0 1-1.6-4.8 8 8 0 0 1 .7-3.4c.4-1 1-1.9 2-2.4.9-.6 1.9-1 3-1a5 5 0 0 1 4 1.8c1 1.1 1.5 2.7 1.5 4.6v1.2h-8.5Zm3-5.5c-.8 0-1.5.3-2 1-.6.5-.9 1.5-1 2.7h5.9c0-1.2-.3-2.1-.8-2.8-.4-.6-1.1-1-2-1Zm17.2 13.8h-6.5v-2.1h4V65.5h-4v-2.1h6.5v22.4ZM1227.8 170.4h6.5v2.1h-4v18.2h4v2.1h-6.5v-22.4Zm23.4 14.8c0 1.7-.6 3-1.9 3.7a8.8 8.8 0 0 1-4.6 1.1h-4.8v-16.6h4.5c1.8 0 3.2.4 4.3 1 1.2.7 1.8 1.7 1.8 3.2 0 1-.3 1.8-1 2.4-.5.6-1.2 1-2.1 1.2 1 .2 2 .6 2.7 1.2.7.6 1 1.6 1 2.8Zm-3.6-7.3c0-.9-.2-1.5-.8-1.8-.5-.4-1.2-.6-2.2-.6h-2v4.8h2.2c1 0 1.7-.2 2.1-.6.5-.4.7-1 .7-1.8Zm.7 7.3c0-1-.3-1.7-.9-2.2a4 4 0 0 0-2.4-.6h-2.3v5.4h2.2c2.2 0 3.4-.8 3.4-2.6Zm15-8.2a6 6 0 0 1 2 .3l-.5 4.7h-2v-2.6c-.8 0-1.6.4-2.2 1-.7.8-1.2 1.7-1.6 3v4.7h2.6v1.9h-7.1v-2h1.8v-8.8h-1.8v-1.9h3.9l.5 3c.5-1.1 1-2 1.8-2.5.7-.5 1.6-.8 2.6-.8Zm10.4 0c1.9 0 3.3.6 4.3 1.8 1 1.2 1.5 2.8 1.5 4.8s-.6 3.7-1.6 5a5.2 5.2 0 0 1-4.2 1.7c-1.8 0-3.2-.6-4.2-1.7a7.4 7.4 0 0 1-1.5-5c0-2 .5-3.6 1.5-4.8 1-1.2 2.4-1.8 4.2-1.8Zm0 2c-1 0-1.7.5-2.2 1.2-.5.8-.7 2-.7 3.5s.3 2.7.7 3.4c.5.8 1.2 1.1 2.2 1.1 1 0 1.7-.3 2.2-1 .5-.8.7-2 .7-3.6 0-1.5-.2-2.7-.7-3.4a2.4 2.4 0 0 0-2.2-1.1Zm15.8 11-1.5-9-1.5 9h-3.3l-2.1-12.7h2.6l1.3 11 1.8-9.4h2.7l1.6 9.4 1.3-11h2.5l-2 12.7h-3.4Zm12.3-1.7c.9 0 1.6-.2 2-.5.5-.3.8-.7.8-1.2 0-.4 0-.7-.2-1l-.9-.6-2-.6a8.7 8.7 0 0 1-3-1.4 3 3 0 0 1-1.1-2.4c0-1 .4-2 1.3-2.6a6 6 0 0 1 3.7-1 8 8 0 0 1 4.9 1.5l-1.2 1.7a6.4 6.4 0 0 0-3.6-1.2c-1.6 0-2.4.5-2.4 1.4 0 .3.1.6.3.8l1 .6 2 .6c1.3.4 2.3.9 3 1.5.7.5 1 1.4 1 2.5 0 1.3-.5 2.3-1.6 3-1 .6-2.4 1-4 1-2 0-3.8-.7-5.2-1.9l1.5-1.6a6 6 0 0 0 3.8 1.4Zm12-3.8c0 1.3.4 2.2 1 2.8.7.6 1.5 1 2.4 1 .6 0 1.2-.2 1.7-.3l1.6-.9 1.2 1.7-2 1.1c-.9.3-1.7.4-2.6.4-2 0-3.4-.6-4.5-1.8a7 7 0 0 1-1.6-4.8c0-1.3.2-2.4.7-3.4.4-1 1.1-1.9 2-2.4.9-.6 1.9-1 3-1a5 5 0 0 1 4 1.8c1 1.1 1.5 2.7 1.5 4.6v1.2h-8.4Zm3-5.5c-.9 0-1.6.3-2.1 1-.6.5-.9 1.5-1 2.7h6c-.1-1.2-.4-2.1-.9-2.8-.4-.6-1.1-1-2-1Zm18-2a6 6 0 0 1 2 .3l-.5 4.7h-2v-2.6c-.8 0-1.6.4-2.3 1-.6.8-1.1 1.7-1.5 3v4.7h2.5v1.9h-7v-2h1.8v-8.8h-1.9v-1.9h4l.4 3a6 6 0 0 1 1.8-2.5c.8-.5 1.6-.8 2.7-.8Zm13.4 15.8h-6.5v-2.1h4v-18.2h-4v-2.1h6.5v22.4Z" style="fill:#000;fill-opacity:1"/><g filter="url(#o)"><path fill="#313640" fill-rule="evenodd" d="M134.3 96c-4 0-7.3 3.3-7.3 7.3v185.4c0 4 3.3 7.3 7.3 7.3h138.2c4 0 7.2-3.3 7.2-7.3V130l-34-33.9H134.4Z" clip-rule="evenodd" style="fill:#313640;fill:color(display-p3 .1917 .2129 .25);fill-opacity:1"/><path fill="#fff" d="m245.8 100.8 29 29.1h-23a6 6 0 0 1-6-6v-23Z" style="fill:#fff;fill-opacity:1"/><rect width="4.6" height="4.6" x="144" y="228.7" fill="#7E8590" rx="1.8" style="fill:#7e8590;fill:color(display-p3 .4941 .5216 .5647);fill-opacity:1"/><rect width="4.6" height="4.6" x="181.1" y="228.7" fill="#FF6490" rx="2.3" style="fill:#ff6490;fill:color(display-p3 1 .3922 .5647);fill-opacity:1"/><rect width="14.3" height="4.6" x="163.4" y="137.2" fill="#FF6490" rx="2.3" style="fill:#ff6490;fill:color(display-p3 1 .3922 .5647);fill-opacity:1"/><rect width="20" height="4.6" x="180.5" y="137.2" fill="#7DFF86" rx="2.3" style="fill:#7dff86;fill:color(display-p3 .4902 1 .5255);fill-opacity:1"/><rect width="4.6" height="4.6" x="204.5" y="137.2" fill="#fff" rx="2.3" style="fill:#fff;fill-opacity:1"/><rect width="4.6" height="4.6" x="144" y="137.2" fill="#7E8590" rx="1.8" style="fill:#7e8590;fill:color(display-p3 .4941 .5216 .5647);fill-opacity:1"/><rect width="4.6" height="4.6" x="154.3" y="137.2" fill="#fff" rx="1.8" style="fill:#fff;fill-opacity:1"/><rect width="30.8" height="4.6" x="213.1" y="137.2" fill="#FFEB5C" rx="2.3" style="fill:#ffeb5c;fill:color(display-p3 1 .9216 .3608);fill-opacity:1"/><rect width="7.4" height="4.6" x="247.9" y="137.2" fill="#fff" rx="2.3" style="fill:#fff;fill-opacity:1"/><rect width="4.6" height="4.6" x="144" y="217.2" fill="#7E8590" rx="1.8" style="fill:#7e8590;fill:color(display-p3 .4941 .5216 .5647);fill-opacity:1"/><rect width="4.6" height="4.6" x="181.1" y="217.2" fill="#fff" rx="2.3" style="fill:#fff;fill-opacity:1"/><rect width="17.7" height="4.6" x="189.7" y="217.2" fill="#76D8FF" rx="2.3" style="fill:#76d8ff;fill:color(display-p3 .4627 .8471 1);fill-opacity:1"/><rect width="8.6" height="4.6" x="211.4" y="217.2" fill="#fff" rx="2.3" style="fill:#fff;fill-opacity:1"/><rect width="4.6" height="4.6" x="144" y="194.2" fill="#7E8590" rx="1.8" style="fill:#7e8590;fill:color(display-p3 .4941 .5216 .5647);fill-opacity:1"/><rect width="4.6" height="4.6" x="164" y="194.2" fill="#fff" rx="2.3" style="fill:#fff;fill-opacity:1"/><rect width="4.6" height="4.6" x="189.7" y="194.2" fill="#7DFF86" rx="2.3" style="fill:#7dff86;fill:color(display-p3 .4902 1 .5255);fill-opacity:1"/><rect width="13.7" height="4.6" x="172" y="194.2" fill="#FF6490" rx="2.3" style="fill:#ff6490;fill:color(display-p3 1 .3922 .5647);fill-opacity:1"/><rect width="19.4" height="4.6" x="198.2" y="194.2" fill="#FFEB5C" rx="2.3" style="fill:#ffeb5c;fill:color(display-p3 1 .9216 .3608);fill-opacity:1"/><rect width="10.9" height="4.6" x="222.2" y="194.2" fill="#7DFF86" rx="2.3" style="fill:#7dff86;fill:color(display-p3 .4902 1 .5255);fill-opacity:1"/><rect width="26.3" height="4.6" x="237.1" y="194.2" fill="#FFEB5C" rx="2.3" style="fill:#ffeb5c;fill:color(display-p3 1 .9216 .3608);fill-opacity:1"/><rect width="4.6" height="4.6" x="144" y="205.7" fill="#7E8590" rx="1.8" style="fill:#7e8590;fill:color(display-p3 .4941 .5216 .5647);fill-opacity:1"/><rect width="4.6" height="4.6" x="189.7" y="205.7" fill="#FF6490" rx="2.3" style="fill:#ff6490;fill:color(display-p3 1 .3922 .5647);fill-opacity:1"/><rect width="4.6" height="4.6" x="228.5" y="205.7" fill="#FF6490" rx="2.3" style="fill:#ff6490;fill:color(display-p3 1 .3922 .5647);fill-opacity:1"/><rect width="9.1" height="4.6" x="176.5" y="205.7" fill="#fff" rx="2.3" style="fill:#fff;fill-opacity:1"/><rect width="26.3" height="4.6" x="198.2" y="205.7" fill="#fff" rx="2.3" style="fill:#fff;fill-opacity:1"/><rect width="26.3" height="4.6" x="237.1" y="205.7" fill="#fff" rx="2.3" style="fill:#fff;fill-opacity:1"/><rect width="4.6" height="4.6" x="144" y="171.2" fill="#7E8590" rx="1.8" style="fill:#7e8590;fill:color(display-p3 .4941 .5216 .5647);fill-opacity:1"/><rect width="4.6" height="4.6" x="154.3" y="171.2" fill="#fff" rx="1.8" style="fill:#fff;fill-opacity:1"/><rect width="4.6" height="4.6" x="185.1" y="171.2" fill="#fff" rx="2.3" style="fill:#fff;fill-opacity:1"/><rect width="18.3" height="4.6" x="163.4" y="171.2" fill="#fff" rx="2.3" style="fill:#fff;fill-opacity:1"/><rect width="4.6" height="4.6" x="144" y="182.7" fill="#7E8590" rx="1.8" style="fill:#7e8590;fill:color(display-p3 .4941 .5216 .5647);fill-opacity:1"/><rect width="4.6" height="4.6" x="154.3" y="182.7" fill="#fff" rx="1.8" style="fill:#fff;fill-opacity:1"/><rect width="18.3" height="4.6" x="163.4" y="182.7" fill="#FF6490" rx="2.3" style="fill:#ff6490;fill:color(display-p3 1 .3922 .5647);fill-opacity:1"/><rect width="26.3" height="4.6" x="185.1" y="182.7" fill="#fff" rx="2.3" style="fill:#fff;fill-opacity:1"/><rect width="4.6" height="4.6" x="144" y="148.7" fill="#7E8590" rx="1.8" style="fill:#7e8590;fill:color(display-p3 .4941 .5216 .5647);fill-opacity:1"/><rect width="4.6" height="4.6" x="154.3" y="148.7" fill="#fff" rx="1.8" style="fill:#fff;fill-opacity:1"/><rect width="4.6" height="4.6" x="202.8" y="148.7" fill="#FFEB5C" rx="2.3" style="fill:#ffeb5c;fill:color(display-p3 1 .9216 .3608);fill-opacity:1"/><rect width="4.6" height="4.6" x="247.9" y="148.7" fill="#fff" rx="2.3" style="fill:#fff;fill-opacity:1"/><rect width="9.7" height="4.6" x="163.4" y="148.7" fill="#FF6490" rx="2.3" style="fill:#ff6490;fill:color(display-p3 1 .3922 .5647);fill-opacity:1"/><rect width="22.3" height="4.6" x="176.5" y="148.7" fill="#fff" rx="2.3" style="fill:#fff;fill-opacity:1"/><rect width="17.7" height="4.6" x="210.8" y="148.7" fill="#C8D1DD" rx="2.3" style="fill:#c8d1dd;fill:color(display-p3 .7843 .8196 .8667);fill-opacity:1"/><rect width="12" height="4.6" x="231.9" y="148.7" fill="#FFEB5C" rx="2.3" style="fill:#ffeb5c;fill:color(display-p3 1 .9216 .3608);fill-opacity:1"/><rect width="9.7" height="4.6" x="163.4" y="125.7" fill="#FF6490" rx="2.3" style="fill:#ff6490;fill:color(display-p3 1 .3922 .5647);fill-opacity:1"/><rect width="4.6" height="4.6" x="144" y="125.7" fill="#7E8590" rx="1.8" style="fill:#7e8590;fill:color(display-p3 .4941 .5216 .5647);fill-opacity:1"/><rect width="4.6" height="4.6" x="154.3" y="125.7" fill="#fff" rx="1.8" style="fill:#fff;fill-opacity:1"/><rect width="9.7" height="4.6" x="176.5" y="125.7" fill="#fff" rx="2.3" style="fill:#fff;fill-opacity:1"/><rect width="17.7" height="4.6" x="189.7" y="125.7" fill="#fff" rx="2.3" style="fill:#fff;fill-opacity:1"/><rect width="11.4" height="4.6" x="210.8" y="125.7" fill="#fff" rx="2.3" style="fill:#fff;fill-opacity:1"/><rect width="4.6" height="4.6" x="144" y="160.2" fill="#7E8590" rx="1.8" style="fill:#7e8590;fill:color(display-p3 .4941 .5216 .5647);fill-opacity:1"/><rect width="4.6" height="4.6" x="154.3" y="160.2" fill="#fff" rx="1.8" style="fill:#fff;fill-opacity:1"/><rect width="4.6" height="4.6" x="176.5" y="160.2" fill="#fff" rx="2.3" style="fill:#fff;fill-opacity:1"/><rect width="9.7" height="4.6" x="163.4" y="160.2" fill="#FF6490" rx="2.3" style="fill:#ff6490;fill:color(display-p3 1 .3922 .5647);fill-opacity:1"/><rect width="8.6" height="4.6" x="185.1" y="160.2" fill="#FF6490" rx="2.3" style="fill:#ff6490;fill:color(display-p3 1 .3922 .5647);fill-opacity:1"/><rect width="98.2" height="33.9" x="171.5" y="244.2" stroke="#FCFCFC" stroke-width="1.8" rx="2.7" style="stroke:#fcfcfc;stroke:color(display-p3 .9882 .9882 .9882);stroke-opacity:1"/><path fill="#fff" d="m186.6 256.5-8 4.8 8 4.8-1.3 1.8-8.8-5.5v-2.2l8.9-5.5 1.2 1.8Zm15.4 6.6a6 6 0 0 1-1.5 4.1c-1 1-2.4 1.6-4.3 1.6-1.7 0-3.2-.5-4.6-1.5l1.1-1.6 1.7.8 1.7.2a3 3 0 0 0 2.3-1 4 4 0 0 0 .9-2.7v-8.3h-4.8v-2h7.5V263Zm16.6 1a4.6 4.6 0 0 1-2.8 4.2 8 8 0 0 1-3.3.5 8 8 0 0 1-5.9-2.1l1.5-1.6a6.2 6.2 0 0 0 4.4 1.6 4 4 0 0 0 2.3-.6c.6-.5 1-1.1 1-2 0-.4-.1-.8-.3-1.1-.2-.4-.5-.6-1-.9l-2-.8c-1.8-.5-3-1.1-3.9-1.8a3.6 3.6 0 0 1-1.2-2.9c0-.8.2-1.6.7-2.2.4-.7 1.1-1.2 2-1.5a7.6 7.6 0 0 1 8.1 1.4l-1.4 1.5c-1.1-1-2.4-1.4-3.8-1.4-.9 0-1.6.2-2.1.5-.5.4-.8.9-.8 1.5 0 .5.1.8.3 1.1.3.3.6.6 1.2.8l2.2.8a9 9 0 0 1 3.5 1.8c.8.7 1.3 1.7 1.3 3.1Zm6.8-11.5 3 5.7 3.2-5.7h2.8L230 260l5 8.6h-3l-3.6-6.7-3.5 6.7H222l4.8-8.4-4.4-7.5h3Zm12.8 17.4 9.8-20.2 2 1-9.7 20.2-2-1Zm26.6-9.8v2.2L256 268l-1.3-1.8 7.9-4.8-7.9-4.7 1.2-2 9 5.6Z" style="fill:#fff;fill-opacity:1"/></g><g filter="url(#p)"><g clip-path="url(#q)"><rect width="276.2" height="247" x="64" y="506" fill="#23272E" rx="9" style="fill:#23272e;fill:color(display-p3 .1373 .1529 .1804);fill-opacity:1"/><path fill="#1E2227" d="M64 532.2h60.6V753H64z" style="fill:#1e2227;fill:color(display-p3 .1176 .1333 .1529);fill-opacity:1"/><path stroke="#fff" stroke-opacity=".4" stroke-width=".7" d="M63.6 531.8H125v221.6H63.6z" style="stroke:#fff;stroke-opacity:.4"/><path fill="#23272E" stroke="#777" stroke-width=".7" d="M63.6 505.6h276.9v26.9H63.6z" style="fill:#23272e;fill:color(display-p3 .1373 .1529 .1804);fill-opacity:1;stroke:#777;stroke:color(display-p3 .4667 .4667 .4667);stroke-opacity:1"/><g filter="url(#r)"><path fill="#EE6A5F" fill-rule="evenodd" d="M80.5 524a4.5 4.5 0 1 0 0-9 4.5 4.5 0 0 0 0 9Z" clip-rule="evenodd" style="fill:#ee6a5f;fill:color(display-p3 .9333 .4157 .3725);fill-opacity:1"/></g><path stroke="#CE5347" stroke-width=".4" d="M84.8 519.5a4.3 4.3 0 1 1-8.6 0 4.3 4.3 0 0 1 8.6 0Z" style="stroke:#ce5347;stroke:color(display-p3 .8078 .3255 .2784);stroke-opacity:1"/><g filter="url(#s)"><path fill="#F5BD4F" fill-rule="evenodd" d="M95.4 524a4.5 4.5 0 1 0 0-9 4.5 4.5 0 0 0 0 9Z" clip-rule="evenodd" style="fill:#f5bd4f;fill:color(display-p3 .9608 .7412 .3098);fill-opacity:1"/></g><path stroke="#D6A243" stroke-width=".4" d="M99.7 519.5a4.3 4.3 0 1 1-8.6 0 4.3 4.3 0 0 1 8.6 0Z" style="stroke:#d6a243;stroke:color(display-p3 .8392 .6353 .2627);stroke-opacity:1"/><g filter="url(#t)"><path fill="#61C454" fill-rule="evenodd" d="M110.4 524a4.5 4.5 0 1 0 0-9 4.5 4.5 0 0 0 0 9Z" clip-rule="evenodd" style="fill:#61c454;fill:color(display-p3 .3804 .7686 .3294);fill-opacity:1"/></g><path stroke="#58A942" stroke-width=".4" d="M114.7 519.5a4.3 4.3 0 1 1-8.6 0 4.3 4.3 0 0 1 8.6 0Z" style="stroke:#58a942;stroke:color(display-p3 .3451 .6627 .2588);stroke-opacity:1"/><rect width="12.7" height="6" x="167.3" y="553.2" fill="#FF6490" rx="3" style="fill:#ff6490;fill:color(display-p3 1 .3922 .5647);fill-opacity:1"/><rect width="18.7" height="6" x="167.3" y="568.1" fill="#FF6490" rx="3" style="fill:#ff6490;fill:color(display-p3 1 .3922 .5647);fill-opacity:1"/><rect width="26.2" height="6" x="189.7" y="568.1" fill="#7DFF86" rx="3" style="fill:#7dff86;fill:color(display-p3 .4902 1 .5255);fill-opacity:1"/><rect width="6" height="6" x="221.2" y="568.1" fill="#fff" rx="3" style="fill:#fff;fill-opacity:1"/><rect width="6" height="6" x="218.9" y="583.1" fill="#FFEB5C" rx="3" style="fill:#ffeb5c;fill:color(display-p3 1 .9216 .3608);fill-opacity:1"/><rect width="6" height="6" x="195.7" y="613" fill="#fff" rx="3" style="fill:#fff;fill-opacity:1"/><rect width="6" height="6" x="168" y="643" fill="#fff" rx="3" style="fill:#fff;fill-opacity:1"/><rect width="6" height="6" x="201.7" y="643" fill="#7DFF86" rx="3" style="fill:#7dff86;fill:color(display-p3 .4902 1 .5255);fill-opacity:1"/><rect width="6" height="6" x="190.5" y="672.9" fill="#fff" rx="3" style="fill:#fff;fill-opacity:1"/><rect width="6" height="6" x="190.5" y="687.9" fill="#FF6490" rx="3" style="fill:#ff6490;fill:color(display-p3 1 .3922 .5647);fill-opacity:1"/><rect width="6" height="6" x="201.7" y="672.9" fill="#FF6490" rx="3" style="fill:#ff6490;fill:color(display-p3 1 .3922 .5647);fill-opacity:1"/><rect width="6" height="6" x="252.6" y="672.9" fill="#FF6490" rx="3" style="fill:#ff6490;fill:color(display-p3 1 .3922 .5647);fill-opacity:1"/><rect width="6" height="6" x="278.1" y="583.1" fill="#fff" rx="3" style="fill:#fff;fill-opacity:1"/><rect width="6" height="6" x="305.8" y="583.1" fill="#fff" rx="3" style="fill:#fff;fill-opacity:1"/><rect width="71.1" height="6" x="232.4" y="568.1" fill="#FFEB5C" rx="3" style="fill:#ffeb5c;fill:color(display-p3 1 .9216 .3608);fill-opacity:1"/><rect width="9.7" height="6" x="308.8" y="568.1" fill="#fff" rx="3" style="fill:#fff;fill-opacity:1"/><rect width="12.7" height="6" x="167.3" y="583.1" fill="#FF6490" rx="3" style="fill:#ff6490;fill:color(display-p3 1 .3922 .5647);fill-opacity:1"/><rect width="12.7" height="6" x="167.3" y="598.1" fill="#FF6490" rx="3" style="fill:#ff6490;fill:color(display-p3 1 .3922 .5647);fill-opacity:1"/><rect width="18" height="6" x="178.5" y="643" fill="#FF6490" rx="3" style="fill:#ff6490;fill:color(display-p3 1 .3922 .5647);fill-opacity:1"/><rect width="12" height="6" x="184.5" y="657.9" fill="#fff" rx="3" style="fill:#fff;fill-opacity:1"/><rect width="25.4" height="6" x="212.9" y="643" fill="#FFEB5C" rx="3" style="fill:#ffeb5c;fill:color(display-p3 1 .9216 .3608);fill-opacity:1"/><rect width="34.4" height="6" x="212.9" y="672.9" fill="#fff" rx="3" style="fill:#fff;fill-opacity:1"/><rect width="23.2" height="6" x="201.7" y="687.9" fill="#76D8FF" rx="3" style="fill:#76d8ff;fill:color(display-p3 .4627 .8471 1);fill-opacity:1"/><rect width="11.2" height="6" x="230.2" y="687.9" fill="#fff" rx="3" style="fill:#fff;fill-opacity:1"/><rect width="14.2" height="6" x="244.4" y="643" fill="#7DFF86" rx="3" style="fill:#7dff86;fill:color(display-p3 .4902 1 .5255);fill-opacity:1"/><rect width="34.4" height="6" x="263.8" y="643" fill="#FFEB5C" rx="3" style="fill:#ffeb5c;fill:color(display-p3 1 .9216 .3608);fill-opacity:1"/><rect width="34.4" height="6" x="263.8" y="672.9" fill="#fff" rx="3" style="fill:#fff;fill-opacity:1"/><rect width="24" height="6" x="167.3" y="613" fill="#fff" rx="3" style="fill:#fff;fill-opacity:1"/><rect width="24" height="6" x="167.3" y="628" fill="#FF6490" rx="3" style="fill:#ff6490;fill:color(display-p3 1 .3922 .5647);fill-opacity:1"/><rect width="34.4" height="6" x="195.7" y="628" fill="#fff" rx="3" style="fill:#fff;fill-opacity:1"/><rect width="29.2" height="6" x="184.5" y="583.1" fill="#fff" rx="3" style="fill:#fff;fill-opacity:1"/><rect width="23.2" height="6" x="229.4" y="583.1" fill="#C8D1DD" rx="3" style="fill:#c8d1dd;fill:color(display-p3 .7843 .8196 .8667);fill-opacity:1"/><rect width="15.7" height="6" x="257.1" y="583.1" fill="#FFEB5C" rx="3" style="fill:#ffeb5c;fill:color(display-p3 1 .9216 .3608);fill-opacity:1"/><rect width="12.7" height="6" x="184.5" y="553.2" fill="#fff" rx="3" style="fill:#fff;fill-opacity:1"/><rect width="23.2" height="6" x="201.7" y="553.2" fill="#fff" rx="3" style="fill:#fff;fill-opacity:1"/><rect width="15" height="6" x="229.4" y="553.2" fill="#fff" rx="3" style="fill:#fff;fill-opacity:1"/><rect width="11.2" height="6" x="289.3" y="583.1" fill="#FF6490" rx="3" style="fill:#ff6490;fill:color(display-p3 1 .3922 .5647);fill-opacity:1"/><rect width="6" height="6" x="249.6" y="553.2" fill="#fff" rx="3" style="fill:#fff;fill-opacity:1"/><rect width="6" height="6" x="141.8" y="687.9" fill="#7E8590" rx="2.2" style="fill:#7e8590;fill:color(display-p3 .4941 .5216 .5647);fill-opacity:1"/><rect width="6" height="6" x="141.8" y="702.9" fill="#7E8590" rx="2.2" style="fill:#7e8590;fill:color(display-p3 .4941 .5216 .5647);fill-opacity:1"/><rect width="6" height="6" x="141.8" y="568.1" fill="#7E8590" rx="2.2" style="fill:#7e8590;fill:color(display-p3 .4941 .5216 .5647);fill-opacity:1"/><rect width="6" height="6" x="155.3" y="568.1" fill="#fff" rx="2.2" style="fill:#fff;fill-opacity:1"/><rect width="6" height="6" x="141.8" y="672.9" fill="#7E8590" rx="2.2" style="fill:#7e8590;fill:color(display-p3 .4941 .5216 .5647);fill-opacity:1"/><rect width="6" height="6" x="141.8" y="643" fill="#7E8590" rx="2.2" style="fill:#7e8590;fill:color(display-p3 .4941 .5216 .5647);fill-opacity:1"/><rect width="6" height="6" x="141.8" y="657.9" fill="#7E8590" rx="2.2" style="fill:#7e8590;fill:color(display-p3 .4941 .5216 .5647);fill-opacity:1"/><rect width="6" height="6" x="141.8" y="613" fill="#7E8590" rx="2.2" style="fill:#7e8590;fill:color(display-p3 .4941 .5216 .5647);fill-opacity:1"/><rect width="6" height="6" x="155.3" y="613" fill="#fff" rx="2.2" style="fill:#fff;fill-opacity:1"/><rect width="6" height="6" x="141.8" y="628" fill="#7E8590" rx="2.2" style="fill:#7e8590;fill:color(display-p3 .4941 .5216 .5647);fill-opacity:1"/><rect width="6" height="6" x="155.3" y="628" fill="#fff" rx="2.2" style="fill:#fff;fill-opacity:1"/><rect width="6" height="6" x="141.8" y="583.1" fill="#7E8590" rx="2.2" style="fill:#7e8590;fill:color(display-p3 .4941 .5216 .5647);fill-opacity:1"/><rect width="6" height="6" x="155.3" y="583.1" fill="#fff" rx="2.2" style="fill:#fff;fill-opacity:1"/><rect width="6" height="6" x="141.8" y="553.2" fill="#7E8590" rx="2.2" style="fill:#7e8590;fill:color(display-p3 .4941 .5216 .5647);fill-opacity:1"/><rect width="6" height="6" x="155.3" y="553.2" fill="#fff" rx="2.2" style="fill:#fff;fill-opacity:1"/><rect width="6" height="6" x="141.8" y="598.1" fill="#7E8590" rx="2.2" style="fill:#7e8590;fill:color(display-p3 .4941 .5216 .5647);fill-opacity:1"/><rect width="6" height="6" x="155.3" y="598.1" fill="#fff" rx="2.2" style="fill:#fff;fill-opacity:1"/><rect width="23.2" height="6" x="77.5" y="553.2" fill="#81878D" rx="3" style="fill:#81878d;fill:color(display-p3 .5057 .5299 .5542);fill-opacity:1"/><rect width="23.2" height="6" x="88.7" y="567.4" fill="#81878D" rx="3" style="fill:#81878d;fill:color(display-p3 .5057 .5299 .5542);fill-opacity:1"/><rect width="23.2" height="6" x="88.7" y="581.6" fill="#81878D" rx="3" style="fill:#81878d;fill:color(display-p3 .5057 .5299 .5542);fill-opacity:1"/><rect width="23.2" height="6" x="77.5" y="595.8" fill="#81878D" rx="3" style="fill:#81878d;fill:color(display-p3 .5057 .5299 .5542);fill-opacity:1"/><rect width="23.2" height="6" x="77.5" y="610" fill="#81878D" rx="3" style="fill:#81878d;fill:color(display-p3 .5057 .5299 .5542);fill-opacity:1"/><rect width="23.2" height="6" x="88.7" y="624.3" fill="#81878D" rx="3" style="fill:#81878d;fill:color(display-p3 .5057 .5299 .5542);fill-opacity:1"/><rect width="23.2" height="6" x="88.7" y="638.5" fill="#81878D" rx="3" style="fill:#81878d;fill:color(display-p3 .5057 .5299 .5542);fill-opacity:1"/><rect width="23.2" height="6" x="77.5" y="652.7" fill="#81878D" rx="3" style="fill:#81878d;fill:color(display-p3 .5057 .5299 .5542);fill-opacity:1"/><rect width="23.2" height="6" x="77.5" y="666.9" fill="#81878D" rx="3" style="fill:#81878d;fill:color(display-p3 .5057 .5299 .5542);fill-opacity:1"/><rect width="23.2" height="6" x="77.5" y="681.1" fill="#81878D" rx="3" style="fill:#81878d;fill:color(display-p3 .5057 .5299 .5542);fill-opacity:1"/></g></g><path fill="#555" d="m543 196-25-14.4v28.8l25-14.4Zm-232.5 2.5h210v-5h-210v5ZM871 196l1.8-1.8c-.5-.4-1.1-.7-1.8-.7v2.5Zm101.5 101.5-7.5-27.9-20.4 20.4 27.9 7.5Zm-103.3-99.7 85.6 85.6 3.6-3.6-85.6-85.6-3.6 3.6Zm1.8-4.3H752.5v5H871v-5ZM877.5 625.5v2.5c.7 0 1.3-.3 1.8-.7l-1.8-1.8Zm-125.5 0 25 14.4v-28.8l-25 14.4Zm125.5-2.5h-103v5h103v-5Zm1.8 4.3 97.5-97.5-3.6-3.6-97.5 97.5 3.6 3.6ZM352.5 625l25 14.4v-28.8l-25 14.4Zm190.5-2.5H375v5h168v-5Z" style="fill:#555;fill:color(display-p3 .3333 .3333 .3333);fill-opacity:1"/><path fill="#777" d="m879 406 1-1c-.2-.3-.6-.5-1-.5v1.5Zm-678 0v-1.5c-.8 0-1.5.7-1.5 1.5h1.5Zm0 45 8.7-15h-17.4l8.7 15Zm1.5-5.6v-3.8h-3v3.8h3Zm0-7.5V434h-3v3.8h3Zm0-7.5v-3.8h-3v3.8h3Zm0-7.5V419h-3v3.8h3Zm0-7.5v-3.8h-3v3.8h3Zm0-7.5V406h-3v1.9h3Zm-1.5-.4h2v-3h-2v3Zm6 0h4v-3h-4v3Zm8 0h4v-3h-4v3Zm8 0h4v-3h-4v3Zm8 0h3.9v-3h-4v3Zm7.9 0h4v-3h-4v3Zm8 0h4v-3h-4v3Zm8 0h4v-3h-4v3Zm8 0h4v-3h-4v3Zm7.9 0h4v-3h-4v3Zm8 0h4v-3h-4v3Zm8 0h4v-3h-4v3Zm8 0h4v-3h-4v3Zm7.9 0h4v-3h-4v3Zm8 0h4v-3h-4v3Zm8 0h4v-3h-4v3Zm8 0h4v-3h-4v3Zm8 0h3.9v-3h-4v3Zm7.9 0h4v-3h-4v3Zm8 0h4v-3h-4v3Zm8 0h4v-3h-4v3Zm8 0h3.9v-3h-4v3Zm7.9 0h4v-3h-4v3Zm8 0h4v-3h-4v3Zm8 0h4v-3h-4v3Zm8 0h4v-3h-4v3Zm7.9 0h4v-3h-4v3Zm8 0h4v-3h-4v3Zm8 0h4v-3h-4v3Zm8 0h4v-3h-4v3Zm7.9 0h4v-3h-4v3Zm8 0h4v-3h-4v3Zm8 0h4v-3h-4v3Zm8 0h4v-3h-4v3Zm8 0h3.9v-3h-4v3Zm7.9 0h4v-3h-4v3Zm8 0h4v-3h-4v3Zm8 0h4v-3h-4v3Zm8 0h3.9v-3h-4v3Zm7.9 0h4v-3h-4v3Zm8 0h4v-3h-4v3Zm8 0h4v-3h-4v3Zm8 0h4v-3h-4v3Zm7.9 0h4v-3h-4v3Zm8 0h4v-3h-4v3Zm8 0h4v-3h-4v3Zm8 0h4v-3h-4v3Zm7.9 0h4v-3h-4v3Zm8 0h4v-3h-4v3Zm8 0h4v-3h-4v3Zm8 0h4v-3h-4v3Zm7.9 0h4v-3h-4v3Zm8 0h4v-3h-4v3Zm8 0h4v-3h-4v3Zm8 0h4v-3h-4v3Zm8 0h3.9v-3h-4v3Zm7.9 0h4v-3h-4v3Zm8 0h4v-3h-4v3Zm8 0h4v-3h-4v3Zm8 0h3.9v-3h-4v3Zm7.9 0h4v-3h-4v3Zm8 0h4v-3h-4v3Zm8 0h4v-3h-4v3Zm8 0h4v-3h-4v3Zm7.9 0h4v-3h-4v3Zm8 0h4v-3h-4v3Zm8 0h4v-3h-4v3Zm8 0h4v-3h-4v3Zm7.9 0h4v-3h-4v3Zm8 0h4v-3h-4v3Zm8 0h4v-3h-4v3Zm8 0h4v-3h-4v3Zm8 0h3.9v-3h-4v3Zm7.9 0h4v-3h-4v3Zm8 0h4v-3h-4v3Zm8 0h4v-3h-4v3Zm8 0h4v-3h-4v3Zm7.9 0h4v-3h-4v3Zm8 0h4v-3h-4v3Zm8 0h4v-3h-4v3Zm8 0h4v-3h-4v3Zm7.9 0h4v-3h-4v3Zm8 0h4v-3h-4v3Zm8 0h4v-3h-4v3Zm8 0h4v-3h-4v3Zm7.9 0h2v-3h-2v3Zm1-.4 1.3 1.3 2.2-2-1.4-1.5-2.2 2.2Zm4.1 4.1 2.8 2.8 2.1-2.1-2.8-2.8-2 2.1Zm5.6 5.6 2.7 2.8 2.2-2.2-2.8-2.7-2.1 2Zm5.5 5.5 2.8 2.8 2.1-2-2.8-2.9-2 2.1Zm5.6 5.6 2.8 2.8 2-2.1-2.7-2.8-2.1 2.1Zm5.5 5.6 2.8 2.7 2.1-2-2.7-2.9-2.2 2.2Zm5.6 5.5 2.8 2.8 2.1-2.1-2.8-2.8-2.1 2.1Zm5.6 5.6 2.7 2.8 2.2-2.2-2.8-2.7-2.1 2Zm5.5 5.5 2.8 2.8 2.1-2.1-2.8-2.8-2 2.1Zm5.6 5.6 2.8 2.8 2-2.1-2.7-2.8-2.1 2.1Zm5.5 5.6 2.8 2.7 2.1-2-2.7-2.9-2.2 2.2Zm5.6 5.5 2.8 2.8 2.1-2.1-2.8-2.8-2.1 2.1Zm5.6 5.6 2.7 2.8 2.2-2.2-2.8-2.7-2.1 2Zm5.5 5.5 2.8 2.8 2.1-2.1-2.8-2.8-2 2.1Zm5.6 5.6 2.8 2.8 2-2.1-2.7-2.8-2.1 2Zm5.5 5.6 2.8 2.7 2.1-2-2.7-2.9-2.2 2.2Zm5.6 5.5 2.8 2.8 2-2.1-2.7-2.8-2.1 2.1Zm5.5 5.6 1.4 1.4 2.2-2.2-1.4-1.3-2.2 2Z" style="fill:#777;fill:color(display-p3 .4667 .4667 .4667);fill-opacity:1"/><defs><filter id="a" width="695" height="506" x="940" y="163" color-interpolation-filters="sRGB" filterUnits="userSpaceOnUse"><feFlood flood-opacity="0" result="BackgroundImageFix"/><feColorMatrix in="SourceAlpha" result="hardAlpha" values="0 0 0 0 0 0 0 0 0 0 0 0 0 0 0 0 0 0 127 0"/><feOffset dy="10"/><feGaussianBlur stdDeviation="25"/><feColorMatrix values="0 0 0 0 0 0 0 0 0 0 0 0 0 0 0 0 0 0 0.2 0"/><feBlend in2="BackgroundImageFix" result="effect1_dropShadow_46_1685"/><feColorMatrix in="SourceAlpha" result="hardAlpha" values="0 0 0 0 0 0 0 0 0 0 0 0 0 0 0 0 0 0 127 0"/><feOffset dy="20"/><feGaussianBlur stdDeviation="15"/><feColorMatrix values="0 0 0 0 0 0 0 0 0 0 0 0 0 0 0 0 0 0 0.1 0"/><feBlend in2="effect1_dropShadow_46_1685" result="effect2_dropShadow_46_1685"/><feBlend in="SourceGraphic" in2="effect2_dropShadow_46_1685" result="shape"/></filter><filter id="c" width="595" height="53.5" x="990" y="203" color-interpolation-filters="sRGB" filterUnits="userSpaceOnUse"><feFlood flood-opacity="0" result="BackgroundImageFix"/><feColorMatrix in="SourceAlpha" result="hardAlpha" values="0 0 0 0 0 0 0 0 0 0 0 0 0 0 0 0 0 0 127 0"/><feOffset dy=".5"/><feColorMatrix values="0 0 0 0 0 0 0 0 0 0 0 0 0 0 0 0 0 0 0.15 0"/><feBlend in2="BackgroundImageFix" result="effect1_dropShadow_46_1685"/><feBlend in="SourceGraphic" in2="effect1_dropShadow_46_1685" result="shape"/><feColorMatrix in="SourceAlpha" result="hardAlpha" values="0 0 0 0 0 0 0 0 0 0 0 0 0 0 0 0 0 0 127 0"/><feOffset dy="-.5"/><feComposite in2="hardAlpha" k2="-1" k3="1" operator="arithmetic"/><feColorMatrix values="0 0 0 0 0 0 0 0 0 0 0 0 0 0 0 0 0 0 0.05 0"/><feBlend in2="shape" result="effect2_innerShadow_46_1685"/></filter><filter id="d" width="12" height="12" x="1011" y="223" color-interpolation-filters="sRGB" filterUnits="userSpaceOnUse"><feFlood flood-opacity="0" result="BackgroundImageFix"/><feBlend in="SourceGraphic" in2="BackgroundImageFix" result="shape"/><feColorMatrix in="SourceAlpha" result="hardAlpha" values="0 0 0 0 0 0 0 0 0 0 0 0 0 0 0 0 0 0 127 0"/><feOffset/><feGaussianBlur stdDeviation="3"/><feComposite in2="hardAlpha" k2="-1" k3="1" operator="arithmetic"/><feColorMatrix values="0 0 0 0 0.92549 0 0 0 0 0.427451 0 0 0 0 0.384314 0 0 0 1 0"/><feBlend in2="shape" result="effect1_innerShadow_46_1685"/></filter><filter id="e" width="12" height="12" x="1031" y="223" color-interpolation-filters="sRGB" filterUnits="userSpaceOnUse"><feFlood flood-opacity="0" result="BackgroundImageFix"/><feBlend in="SourceGraphic" in2="BackgroundImageFix" result="shape"/><feColorMatrix in="SourceAlpha" result="hardAlpha" values="0 0 0 0 0 0 0 0 0 0 0 0 0 0 0 0 0 0 127 0"/><feOffset/><feGaussianBlur stdDeviation="3"/><feComposite in2="hardAlpha" k2="-1" k3="1" operator="arithmetic"/><feColorMatrix values="0 0 0 0 0.960784 0 0 0 0 0.768627 0 0 0 0 0.317647 0 0 0 1 0"/><feBlend in2="shape" result="effect1_innerShadow_46_1685"/></filter><filter id="f" width="12" height="12" x="1051" y="223" color-interpolation-filters="sRGB" filterUnits="userSpaceOnUse"><feFlood flood-opacity="0" result="BackgroundImageFix"/><feBlend in="SourceGraphic" in2="BackgroundImageFix" result="shape"/><feColorMatrix in="SourceAlpha" result="hardAlpha" values="0 0 0 0 0 0 0 0 0 0 0 0 0 0 0 0 0 0 127 0"/><feOffset/><feGaussianBlur stdDeviation="3"/><feComposite in2="hardAlpha" k2="-1" k3="1" operator="arithmetic"/><feColorMatrix values="0 0 0 0 0.407843 0 0 0 0 0.8 0 0 0 0 0.345098 0 0 0 1 0"/><feBlend in2="shape" result="effect1_innerShadow_46_1685"/></filter><filter id="g" width="33.8" height="50.1" x="1404" y="406" color-interpolation-filters="sRGB" filterUnits="userSpaceOnUse"><feFlood flood-opacity="0" result="BackgroundImageFix"/><feColorMatrix in="SourceAlpha" result="hardAlpha" values="0 0 0 0 0 0 0 0 0 0 0 0 0 0 0 0 0 0 127 0"/><feOffset dy="1"/><feGaussianBlur stdDeviation=".9"/><feColorMatrix values="0 0 0 0 0 0 0 0 0 0 0 0 0 0 0 0 0 0 0.65 0"/><feBlend in2="BackgroundImageFix" result="effect1_dropShadow_46_1685"/><feBlend in="SourceGraphic" in2="effect1_dropShadow_46_1685" result="shape"/></filter><filter id="i" width="200" height="200" x="548" y="104" color-interpolation-filters="sRGB" filterUnits="userSpaceOnUse"><feFlood flood-opacity="0" result="BackgroundImageFix"/><feColorMatrix in="SourceAlpha" result="hardAlpha" values="0 0 0 0 0 0 0 0 0 0 0 0 0 0 0 0 0 0 127 0"/><feOffset dy="8"/><feGaussianBlur stdDeviation="8"/><feComposite in2="hardAlpha" operator="out"/><feColorMatrix values="0 0 0 0 0 0 0 0 0 0 0 0 0 0 0 0 0 0 0.2 0"/><feBlend in2="BackgroundImageFix" result="effect1_dropShadow_46_1685"/><feBlend in="SourceGraphic" in2="effect1_dropShadow_46_1685" result="shape"/></filter><filter id="k" width="200" height="200" x="549" y="533" color-interpolation-filters="sRGB" filterUnits="userSpaceOnUse"><feFlood flood-opacity="0" result="BackgroundImageFix"/><feColorMatrix in="SourceAlpha" result="hardAlpha" values="0 0 0 0 0 0 0 0 0 0 0 0 0 0 0 0 0 0 127 0"/><feOffset dy="8"/><feGaussianBlur stdDeviation="8"/><feComposite in2="hardAlpha" operator="out"/><feColorMatrix values="0 0 0 0 0 0 0 0 0 0 0 0 0 0 0 0 0 0 0.2 0"/><feBlend in2="BackgroundImageFix" result="effect1_dropShadow_46_1685"/><feBlend in="SourceGraphic" in2="effect1_dropShadow_46_1685" result="shape"/></filter><filter id="o" width="184.7" height="232" x="111" y="88" color-interpolation-filters="sRGB" filterUnits="userSpaceOnUse"><feFlood flood-opacity="0" result="BackgroundImageFix"/><feColorMatrix in="SourceAlpha" result="hardAlpha" values="0 0 0 0 0 0 0 0 0 0 0 0 0 0 0 0 0 0 127 0"/><feOffset dy="8"/><feGaussianBlur stdDeviation="8"/><feComposite in2="hardAlpha" operator="out"/><feColorMatrix values="0 0 0 0 0 0 0 0 0 0 0 0 0 0 0 0 0 0 0.25 0"/><feBlend in2="BackgroundImageFix" result="effect1_dropShadow_46_1685"/><feBlend in="SourceGraphic" in2="effect1_dropShadow_46_1685" result="shape"/></filter><filter id="p" width="308.2" height="279" x="48" y="498" color-interpolation-filters="sRGB" filterUnits="userSpaceOnUse"><feFlood flood-opacity="0" result="BackgroundImageFix"/><feColorMatrix in="SourceAlpha" result="hardAlpha" values="0 0 0 0 0 0 0 0 0 0 0 0 0 0 0 0 0 0 127 0"/><feOffset dy="8"/><feGaussianBlur stdDeviation="8"/><feColorMatrix values="0 0 0 0 0 0 0 0 0 0 0 0 0 0 0 0 0 0 0.25 0"/><feBlend in2="BackgroundImageFix" result="effect1_dropShadow_46_1685"/><feBlend in="SourceGraphic" in2="effect1_dropShadow_46_1685" result="shape"/></filter><filter id="r" width="9" height="9" x="76" y="515" color-interpolation-filters="sRGB" filterUnits="userSpaceOnUse"><feFlood flood-opacity="0" result="BackgroundImageFix"/><feBlend in="SourceGraphic" in2="BackgroundImageFix" result="shape"/><feColorMatrix in="SourceAlpha" result="hardAlpha" values="0 0 0 0 0 0 0 0 0 0 0 0 0 0 0 0 0 0 127 0"/><feOffset/><feGaussianBlur stdDeviation="2.2"/><feComposite in2="hardAlpha" k2="-1" k3="1" operator="arithmetic"/><feColorMatrix values="0 0 0 0 0.92549 0 0 0 0 0.427451 0 0 0 0 0.384314 0 0 0 1 0"/><feBlend in2="shape" result="effect1_innerShadow_46_1685"/></filter><filter id="s" width="9" height="9" x="90.9" y="515" color-interpolation-filters="sRGB" filterUnits="userSpaceOnUse"><feFlood flood-opacity="0" result="BackgroundImageFix"/><feBlend in="SourceGraphic" in2="BackgroundImageFix" result="shape"/><feColorMatrix in="SourceAlpha" result="hardAlpha" values="0 0 0 0 0 0 0 0 0 0 0 0 0 0 0 0 0 0 127 0"/><feOffset/><feGaussianBlur stdDeviation="2.2"/><feComposite in2="hardAlpha" k2="-1" k3="1" operator="arithmetic"/><feColorMatrix values="0 0 0 0 0.960784 0 0 0 0 0.768627 0 0 0 0 0.317647 0 0 0 1 0"/><feBlend in2="shape" result="effect1_innerShadow_46_1685"/></filter><filter id="t" width="9" height="9" x="105.9" y="515" color-interpolation-filters="sRGB" filterUnits="userSpaceOnUse"><feFlood flood-opacity="0" result="BackgroundImageFix"/><feBlend in="SourceGraphic" in2="BackgroundImageFix" result="shape"/><feColorMatrix in="SourceAlpha" result="hardAlpha" values="0 0 0 0 0 0 0 0 0 0 0 0 0 0 0 0 0 0 127 0"/><feOffset/><feGaussianBlur stdDeviation="2.2"/><feComposite in2="hardAlpha" k2="-1" k3="1" operator="arithmetic"/><feColorMatrix values="0 0 0 0 0.407843 0 0 0 0 0.8 0 0 0 0 0.345098 0 0 0 1 0"/><feBlend in2="shape" result="effect1_innerShadow_46_1685"/></filter><linearGradient id="j" x1="637" x2="723.4" y1="236" y2="200.4" gradientUnits="userSpaceOnUse"><stop stop-color="#FFA588" style="stop-color:#ffa588;stop-color:color(display-p3 1 .6471 .5333);stop-opacity:1"/><stop offset=".3" stop-color="#FCB371" style="stop-color:#fcb371;stop-color:color(display-p3 .9882 .702 .4431);stop-opacity:1"/><stop offset=".8" stop-color="#F4D837" style="stop-color:#f4d837;stop-color:color(display-p3 .9569 .8471 .2157);stop-opacity:1"/><stop offset="1" stop-color="#F1E425" style="stop-color:#f1e425;stop-color:color(display-p3 .9451 .8941 .1451);stop-opacity:1"/></linearGradient><linearGradient id="l" x1="631.6" x2="613.6" y1="602.2" y2="625.4" gradientUnits="userSpaceOnUse"><stop stop-color="#41873F" style="stop-color:#41873f;stop-color:color(display-p3 .2549 .5294 .2471);stop-opacity:1"/><stop offset=".3" stop-color="#418B3D" style="stop-color:#418b3d;stop-color:color(display-p3 .2549 .5451 .2392);stop-opacity:1"/><stop offset=".6" stop-color="#419637" style="stop-color:#419637;stop-color:color(display-p3 .2549 .5882 .2157);stop-opacity:1"/><stop offset=".9" stop-color="#3FA92D" style="stop-color:#3fa92d;stop-color:color(display-p3 .2471 .6627 .1765);stop-opacity:1"/><stop offset="1" stop-color="#3FAE2A" style="stop-color:#3fae2a;stop-color:color(display-p3 .2471 .6824 .1647);stop-opacity:1"/></linearGradient><linearGradient id="m" x1="616.1" x2="647.3" y1="610.6" y2="598.1" gradientUnits="userSpaceOnUse"><stop offset=".1" stop-color="#41873F" style="stop-color:#41873f;stop-color:color(display-p3 .2549 .5294 .2471);stop-opacity:1"/><stop offset=".4" stop-color="#54A044" style="stop-color:#54a044;stop-color:color(display-p3 .3294 .6275 .2667);stop-opacity:1"/><stop offset=".7" stop-color="#66B848" style="stop-color:#66b848;stop-color:color(display-p3 .4 .7216 .2824);stop-opacity:1"/><stop offset=".9" stop-color="#6CC04A" style="stop-color:#6cc04a;stop-color:color(display-p3 .4235 .7529 .2902);stop-opacity:1"/></linearGradient><linearGradient id="n" x1="616.2" x2="645.6" y1="619" y2="619" gradientUnits="userSpaceOnUse"><stop offset=".1" stop-color="#6CC04A" style="stop-color:#6cc04a;stop-color:color(display-p3 .4235 .7529 .2902);stop-opacity:1"/><stop offset=".3" stop-color="#66B848" style="stop-color:#66b848;stop-color:color(display-p3 .4 .7216 .2824);stop-opacity:1"/><stop offset=".6" stop-color="#54A044" style="stop-color:#54a044;stop-color:color(display-p3 .3294 .6275 .2667);stop-opacity:1"/><stop offset=".9" stop-color="#41873F" style="stop-color:#41873f;stop-color:color(display-p3 .2549 .5294 .2471);stop-opacity:1"/></linearGradient><clipPath id="b"><rect width="595" height="406" x="990" y="203" fill="#fff" rx="10" style="fill:#fff;fill-opacity:1"/></clipPath><clipPath id="h"><path fill="#fff" d="M0 0h230.1v33H0z" style="fill:#fff;fill-opacity:1" transform="translate(1311 492)"/></clipPath><clipPath id="q"><rect width="276.2" height="247" x="64" y="506" fill="#fff" rx="9" style="fill:#fff;fill-opacity:1"/></clipPath></defs></svg>